<?xml version="1.0" encoding="UTF-8"?>
<!DOCTYPE svg PUBLIC "-//W3C//DTD SVG 1.1//EN" "http://www.w3.org/Graphics/SVG/1.1/DTD/svg11.dtd">
<svg xmlns="http://www.w3.org/2000/svg" version="1.1" width="225px" height="225px" style="shape-rendering:geometricPrecision; text-rendering:geometricPrecision; image-rendering:optimizeQuality; fill-rule:evenodd; clip-rule:evenodd" xmlns:xlink="http://www.w3.org/1999/xlink">
<g><path style="opacity:1" fill="#f3f4f6" d="M -0.5,-0.5 C 74.5,-0.5 149.5,-0.5 224.5,-0.5C 224.5,74.5 224.5,149.5 224.5,224.5C 149.5,224.5 74.5,224.5 -0.5,224.5C -0.5,149.5 -0.5,74.5 -0.5,-0.5 Z"/></g>
<g><path style="opacity:1" fill="#f8c32e" d="M 174.5,64.5 C 176.912,64.244 178.579,65.244 179.5,67.5C 180.748,66.9598 181.915,66.2931 183,65.5C 181.513,70.1309 179.18,74.4642 176,78.5C 173.376,74.752 170.876,70.9187 168.5,67C 169.996,66.4926 171.163,66.9926 172,68.5C 172.662,67.0161 173.496,65.6828 174.5,64.5 Z"/></g>
<g><path style="opacity:1" fill="#f8c331" d="M 165.5,66.5 C 168.978,71.4335 172.478,76.4335 176,81.5C 179.581,76.672 182.915,71.672 186,66.5C 186.374,68.898 186.374,71.2313 186,73.5C 187.993,71.6218 190.159,71.2885 192.5,72.5C 191.872,74.2581 190.872,75.7581 189.5,77C 191.332,77.7485 192.999,78.7485 194.5,80C 171.862,81.3404 171.862,82.6737 194.5,84C 192.779,85.5272 190.779,86.5272 188.5,87C 190.019,88.3513 191.352,89.8513 192.5,91.5C 191.667,91.8333 190.833,92.1667 190,92.5C 188.091,91.8443 186.258,91.3443 184.5,91C 187.047,93.2163 187.047,94.883 184.5,96C 181.792,91.4157 178.958,86.9157 176,82.5C 172.419,87.328 169.085,92.328 166,97.5C 165.626,95.102 165.626,92.7687 166,90.5C 164.007,92.3782 161.841,92.7115 159.5,91.5C 160.032,89.2589 161.365,87.7589 163.5,87C 161.026,86.8871 159.026,85.8871 157.5,84C 163.204,83.6331 168.87,82.9664 174.5,82C 168.796,81.6331 163.13,80.9664 157.5,80C 159.001,78.7485 160.668,77.7485 162.5,77C 160.393,75.7365 159.393,73.9032 159.5,71.5C 161.936,71.317 164.103,71.9837 166,73.5C 165.793,71.2487 165.627,68.9154 165.5,66.5 Z"/></g>
<g><path style="opacity:1" fill="#0a0a0a" d="M 41.5,76.5 C 49.3278,75.4931 52.4944,78.8265 51,86.5C 43.9168,98.3352 36.5835,110.002 29,121.5C 27.6591,124.022 26.8257,126.689 26.5,129.5C 30.1867,128.824 33.5201,127.324 36.5,125C 48.5,115 60.5,105 72.5,95C 74.8333,94.3333 77.1667,94.3333 79.5,95C 64.4872,112.517 52.6539,132.017 44,153.5C 43.5423,150.819 42.709,148.319 41.5,146C 41.796,144.112 42.296,142.278 43,140.5C 47.9063,130.659 53.2397,121.325 59,112.5C 51.367,120.472 42.867,127.305 33.5,133C 26.678,134.932 23.0113,132.432 22.5,125.5C 23.1417,121.21 24.6417,117.21 27,113.5C 33.6667,103.5 40.3333,93.5 47,83.5C 47.6667,82.1667 47.6667,80.8333 47,79.5C 35.9075,86.2613 26.4075,94.7613 18.5,105C 20.9183,107.31 20.2517,107.976 16.5,107C 15.1007,105.938 14.1007,104.605 13.5,103C 20.4437,91.554 29.7771,82.7207 41.5,76.5 Z"/></g>
<g><path style="opacity:1" fill="#070707" d="M 140.5,79.5 C 146.735,79.2273 148.902,82.2273 147,88.5C 141.76,100.652 134.76,111.652 126,121.5C 125.333,124.833 125.333,128.167 126,131.5C 127.868,132.672 129.702,132.505 131.5,131C 138.24,124.93 144.24,118.263 149.5,111C 156.636,106.463 161.303,108.297 163.5,116.5C 172.852,118.973 172.518,120.639 162.5,121.5C 160.167,128.657 155.834,134.157 149.5,138C 144.078,139.035 140.578,136.869 139,131.5C 131.277,140.091 124.944,139.091 120,128.5C 111.574,139.475 103.907,139.142 97,127.5C 92.7592,135.371 86.2592,138.537 77.5,137C 72.3652,133.945 70.5319,129.445 72,123.5C 73.4033,117.525 76.2366,112.358 80.5,108C 85.6532,105.173 89.3199,106.339 91.5,111.5C 91.1527,114.528 89.986,117.194 88,119.5C 84.2653,123.404 80.4319,127.071 76.5,130.5C 76.6082,131.442 76.9415,132.275 77.5,133C 79.1667,133.667 80.8333,133.667 82.5,133C 87.9231,129.581 92.7564,125.415 97,120.5C 98.8799,112.736 101.88,105.403 106,98.5C 108.679,94.4876 112.012,91.1542 116,88.5C 118.884,89.424 120.051,91.424 119.5,94.5C 117.721,105.726 112.554,115.059 104,122.5C 103.333,125.5 103.333,128.5 104,131.5C 106.21,132.749 108.376,132.582 110.5,131C 113.667,127.833 116.833,124.667 120,121.5C 122.859,105.451 129.692,91.451 140.5,79.5 Z"/></g>
<g><path style="opacity:1" fill="#f8c437" d="M 175.5,84.5 C 177.899,88.9822 178.065,93.6489 176,98.5C 174.344,96.8541 173.511,94.8541 173.5,92.5C 173.968,89.7666 174.635,87.1 175.5,84.5 Z"/></g>
<g><path style="opacity:1" fill="#0c0d0d" d="M 202.5,94.5 C 204.854,94.838 207.187,95.338 209.5,96C 198.333,104.5 188.5,114.333 180,125.5C 178.98,121.29 179.98,117.623 183,114.5C 188.361,106.64 194.861,99.973 202.5,94.5 Z"/></g>
<g><path style="opacity:1" fill="#dededf" d="M 140.5,88.5 C 141.573,89.2506 141.74,90.2506 141,91.5C 138.167,97.1697 134.834,102.503 131,107.5C 133.068,100.697 136.235,94.3639 140.5,88.5 Z"/></g>
<g><path style="opacity:1" fill="#cececf" d="M 113.5,97.5 C 112.842,102.507 110.675,107.173 107,111.5C 108.316,106.53 110.482,101.863 113.5,97.5 Z"/></g>
<g><path style="opacity:1" fill="#cbcccd" d="M 84.5,111.5 C 85.0431,111.56 85.3764,111.893 85.5,112.5C 83.8619,115.304 82.0285,117.971 80,120.5C 80.7263,117.229 82.2263,114.229 84.5,111.5 Z"/></g>
<g><path style="opacity:1" fill="#ececee" d="M 153.5,114.5 C 155.809,115.388 157.476,117.054 158.5,119.5C 155.683,124.962 152.017,129.795 147.5,134C 146.552,134.483 145.552,134.649 144.5,134.5C 144.25,126.337 147.25,119.67 153.5,114.5 Z"/></g>
<g><path style="opacity:1" fill="#0d0d0d" d="M 176.5,132.5 C 178.145,136.203 177.145,139.203 173.5,141.5C 171.003,141.065 169.837,139.731 170,137.5C 172.352,135.97 174.519,134.303 176.5,132.5 Z"/></g>
<g><path style="opacity:1" fill="#8d8d8e" d="M 159.5,150.5 C 160.117,150.611 160.617,150.944 161,151.5C 161.667,153.5 161.667,155.5 161,157.5C 160.56,155.134 160.06,152.801 159.5,150.5 Z"/></g>
<g><path style="opacity:1" fill="#b9babb" d="M 139.5,149.5 C 140.434,150.568 140.768,151.901 140.5,153.5C 142.833,153.5 145.167,153.5 147.5,153.5C 148.833,154.167 148.833,154.833 147.5,155.5C 145.167,155.5 142.833,155.5 140.5,155.5C 140.657,156.873 140.49,158.207 140,159.5C 139.502,156.183 139.335,152.85 139.5,149.5 Z"/></g>
<g><path style="opacity:1" fill="#939394" d="M 151.5,150.5 C 151.424,153.012 151.591,155.679 152,158.5C 150.188,155.954 150.022,153.288 151.5,150.5 Z"/></g>
<g><path style="opacity:1" fill="#9a9a9b" d="M 172.5,148.5 C 175.187,148.336 177.854,148.503 180.5,149C 178.19,149.497 175.857,149.663 173.5,149.5C 173.5,152.833 173.5,156.167 173.5,159.5C 175.857,159.337 178.19,159.503 180.5,160C 177.854,160.497 175.187,160.664 172.5,160.5C 172.5,156.5 172.5,152.5 172.5,148.5 Z"/></g>
</svg>
