<?xml version="1.0" encoding="UTF-8"?>
<!DOCTYPE svg PUBLIC "-//W3C//DTD SVG 1.1//EN" "http://www.w3.org/Graphics/SVG/1.1/DTD/svg11.dtd">
<svg xmlns="http://www.w3.org/2000/svg" version="1.1" width="683px" height="350px" style="shape-rendering:geometricPrecision; text-rendering:geometricPrecision; image-rendering:optimizeQuality; fill-rule:evenodd; clip-rule:evenodd" xmlns:xlink="http://www.w3.org/1999/xlink">
<g><path style="opacity:1" fill="#fefefd" d="M -0.5,-0.5 C 227.167,-0.5 454.833,-0.5 682.5,-0.5C 682.5,116.167 682.5,232.833 682.5,349.5C 454.833,349.5 227.167,349.5 -0.5,349.5C -0.5,232.833 -0.5,116.167 -0.5,-0.5 Z"/></g>
<g><path style="opacity:1" fill="#876f4e" d="M 316.5,111.5 C 314.656,110.796 314.156,109.463 315,107.5C 319.827,101.996 325.66,97.8295 332.5,95C 339.091,92.4695 345.758,90.1361 352.5,88C 356.016,84.6514 359.349,81.1514 362.5,77.5C 360.608,76.5266 358.608,75.8599 356.5,75.5C 340.837,92.2891 322.67,95.6224 302,85.5C 295.439,89.6793 288.272,91.1793 280.5,90C 273.055,86.971 272.722,83.6377 279.5,80C 285.436,79.2366 291.269,79.7366 297,81.5C 308.278,73.2266 319.278,64.5599 330,55.5C 328.169,45.4905 332.335,39.8238 342.5,38.5C 347.168,38.7923 351.668,39.7923 356,41.5C 360.471,40.4873 364.971,40.3206 369.5,41C 365.621,42.0493 361.954,43.5493 358.5,45.5C 360.617,47.7363 361.617,50.403 361.5,53.5C 361.267,60.0835 359.6,66.2502 356.5,72C 359.51,74.169 362.844,74.8357 366.5,74C 372.02,67.2439 379.02,63.0772 387.5,61.5C 391.987,61.7939 393.487,64.1273 392,68.5C 388.774,73.2046 384.274,76.0379 378.5,77C 375.5,77.3333 372.5,77.6667 369.5,78C 366.833,81.3333 364.167,84.6667 361.5,88C 366.5,88.6667 371.5,88.6667 376.5,88C 389.287,80.6624 402.954,78.4957 417.5,81.5C 418.149,85.0612 416.482,87.2279 412.5,88C 402.216,89.2036 391.882,89.8703 381.5,90C 373.703,94.652 366.536,100.152 360,106.5C 358.08,109.339 356.413,112.339 355,115.5C 354.223,118.429 354.39,121.263 355.5,124C 362.215,125.248 368.548,124.248 374.5,121C 378.333,117.833 382.167,114.667 386,111.5C 386.72,109.888 386.554,108.388 385.5,107C 386.448,106.517 387.448,106.351 388.5,106.5C 387.753,111.775 385.086,115.942 380.5,119C 376.411,122.095 372.077,124.761 367.5,127C 362.589,128.492 357.589,128.826 352.5,128C 347.845,125.103 346.345,120.937 348,115.5C 353.091,105.077 360.591,96.9104 370.5,91C 366.833,90.3333 363.167,90.3333 359.5,91C 351.231,100.282 341.564,107.615 330.5,113C 326.928,114.405 323.261,114.738 319.5,114C 318.058,113.623 317.058,112.79 316.5,111.5 Z"/></g>
<g><path style="opacity:1" fill="#f9f4eb" d="M 279.5,81.5 C 285.072,80.9896 290.405,81.8229 295.5,84C 290.334,87.3544 284.668,88.3544 278.5,87C 275.898,84.6883 276.232,82.8549 279.5,81.5 Z"/></g>
<g><path style="opacity:1" fill="#faf6eb" d="M 395.5,82.5 C 402.2,82.17 408.866,82.5033 415.5,83.5C 414.335,84.5836 413.002,85.4169 411.5,86C 403.208,87.4051 394.875,87.7385 386.5,87C 389.592,85.4541 392.592,83.9541 395.5,82.5 Z"/></g>
<g><path style="opacity:1" fill="#f9f6ec" d="M 383.5,63.5 C 386.641,62.9082 388.974,63.9082 390.5,66.5C 390.471,68.0293 389.804,69.196 388.5,70C 369.711,77.6974 368.044,75.5307 383.5,63.5 Z"/></g>
<g><path style="opacity:1" fill="#fafaf5" d="M 331.5,61.5 C 333.917,63.4111 336.25,65.5778 338.5,68C 341.864,69.6822 345.198,71.3489 348.5,73C 335.858,85.1089 321.191,88.7756 304.5,84C 314.31,77.4345 323.31,69.9345 331.5,61.5 Z"/></g>
<g><path style="opacity:1" fill="#faf9f4" d="M 354.5,46.5 C 355.496,46.4142 356.329,46.7476 357,47.5C 359.448,54.0245 358.448,60.0245 354,65.5C 351.51,69.8695 348.01,70.7028 343.5,68C 340.021,65.6876 337.021,62.8542 334.5,59.5C 340.689,54.2886 347.355,49.9553 354.5,46.5 Z"/></g>
<g><path style="opacity:1" fill="#f6f2ea" d="M 339.5,40.5 C 343.348,40.2397 347.015,40.9064 350.5,42.5C 344.269,45.1971 338.435,48.5305 333,52.5C 331.482,50.3863 331.149,48.053 332,45.5C 334.273,43.3718 336.773,41.7051 339.5,40.5 Z"/></g>
<g><path style="opacity:1" fill="#faf7f2" d="M 316.5,111.5 C 318.503,106.654 321.836,102.82 326.5,100C 333.117,95.9933 340.117,93.8266 347.5,93.5C 341.839,100.999 334.839,106.832 326.5,111C 323.183,111.498 319.85,111.665 316.5,111.5 Z"/></g>
<g><path style="opacity:1" fill="#242021" d="M 115.5,191.5 C 111.167,192.833 106.833,192.833 102.5,191.5C 103.458,191.047 104.292,190.381 105,189.5C 105.667,176.167 105.667,162.833 105,149.5C 103.055,148.137 100.888,147.303 98.5,147C 105.167,146.333 111.833,146.333 118.5,147C 115.724,147.066 113.558,148.232 112,150.5C 111.333,163.167 111.333,175.833 112,188.5C 112.422,190.426 113.589,191.426 115.5,191.5 Z"/></g>
<g><path style="opacity:1" fill="#2e2c2d" d="M 545.5,191.5 C 541.167,192.833 536.833,192.833 532.5,191.5C 533.496,191.586 534.329,191.252 535,190.5C 535.5,176.837 535.667,163.171 535.5,149.5C 531.818,149.335 528.152,149.501 524.5,150C 522.261,151.978 520.928,154.478 520.5,157.5C 519.511,153.893 519.177,150.226 519.5,146.5C 532.5,146.5 545.5,146.5 558.5,146.5C 558.665,150.182 558.499,153.848 558,157.5C 557.484,154.966 556.317,152.8 554.5,151C 550.637,149.646 546.637,149.146 542.5,149.5C 542.333,163.171 542.5,176.837 543,190.5C 543.671,191.252 544.504,191.586 545.5,191.5 Z"/></g>
<g><path style="opacity:1" fill="#292829" d="M 256.5,145.5 C 271.148,143.564 280.648,149.564 285,163.5C 287.299,184.195 278.132,194.362 257.5,194C 244.058,188.29 238.558,178.124 241,163.5C 243.498,155.17 248.665,149.17 256.5,145.5 Z"/></g>
<g><path style="opacity:1" fill="#fafafa" d="M 259.5,147.5 C 268.428,146.92 274.261,150.92 277,159.5C 278.158,168.038 277.492,176.371 275,184.5C 272.274,189.282 268.107,191.616 262.5,191.5C 254.607,190.775 250.107,186.442 249,178.5C 248.11,171.086 248.443,163.753 250,156.5C 252.43,152.566 255.597,149.566 259.5,147.5 Z"/></g>
<g><path style="opacity:1" fill="#2a2728" d="M 369.5,192.5 C 361.648,192.825 353.982,192.492 346.5,191.5C 347.496,191.586 348.329,191.252 349,190.5C 349.667,176.833 349.667,163.167 349,149.5C 347.509,147.996 345.676,147.163 343.5,147C 355.289,145.902 366.956,146.568 378.5,149C 386.071,153.473 389.738,160.139 389.5,169C 389.521,182.482 382.854,190.315 369.5,192.5 Z"/></g>
<g><path style="opacity:1" fill="#faf9fa" d="M 356.5,149.5 C 372.513,146.864 381.18,153.53 382.5,169.5C 381.195,185.497 372.529,192.497 356.5,190.5C 356.5,176.833 356.5,163.167 356.5,149.5 Z"/></g>
<g><path style="opacity:1" fill="#848383" d="M 333.5,150.5 C 333.833,165.182 333.499,179.848 332.5,194.5C 331.893,194.376 331.56,194.043 331.5,193.5C 332.167,179.167 332.833,164.833 333.5,150.5 Z"/></g>
<g><path style="opacity:1" fill="#222021" d="M 643.5,192.5 C 632.654,192.828 621.987,192.494 611.5,191.5C 612.79,190.942 613.623,189.942 614,188.5C 614.667,175.833 614.667,163.167 614,150.5C 612.486,148.234 610.319,147.068 607.5,147C 614.5,146.333 621.5,146.333 628.5,147C 625.344,146.947 622.844,148.114 621,150.5C 620.333,163.167 620.333,175.833 621,188.5C 621.5,189 622,189.5 622.5,190C 629.054,191.081 635.388,190.414 641.5,188C 643.79,185.921 645.457,183.421 646.5,180.5C 646.487,184.554 645.487,188.554 643.5,192.5 Z"/></g>
<g><path style="opacity:1" fill="#282627" d="M 231.5,191.5 C 227.167,192.833 222.833,192.833 218.5,191.5C 220.446,190.965 221.446,189.632 221.5,187.5C 222.824,176.66 222.824,165.66 221.5,154.5C 220.893,154.624 220.56,154.957 220.5,155.5C 215.102,167.962 209.436,180.295 203.5,192.5C 196.681,180.245 190.514,167.578 185,154.5C 184.333,166.5 184.333,178.5 185,190.5C 185.671,191.252 186.504,191.586 187.5,191.5C 184.5,192.833 181.5,192.833 178.5,191.5C 179.496,191.586 180.329,191.252 181,190.5C 181.667,177.167 181.667,163.833 181,150.5C 179.764,148.462 177.931,147.295 175.5,147C 179.871,146.172 184.205,146.339 188.5,147.5C 193.984,159.136 199.484,170.803 205,182.5C 210.5,170.833 216,159.167 221.5,147.5C 225.795,146.339 230.129,146.172 234.5,147C 232.324,147.163 230.491,147.996 229,149.5C 228.333,163.167 228.333,176.833 229,190.5C 229.671,191.252 230.504,191.586 231.5,191.5 Z"/></g>
<g><path style="opacity:1" fill="#545454" d="M 220.5,155.5 C 220.56,154.957 220.893,154.624 221.5,154.5C 222.824,165.66 222.824,176.66 221.5,187.5C 221.828,176.654 221.494,165.987 220.5,155.5 Z"/></g>
<g><path style="opacity:1" fill="#2c2a2b" d="M 599.5,192.5 C 588.321,192.828 577.321,192.495 566.5,191.5C 567.496,191.586 568.329,191.252 569,190.5C 569.833,176.488 569.666,162.488 568.5,148.5C 566.885,147.846 565.218,147.346 563.5,147C 575.495,146.5 587.495,146.333 599.5,146.5C 599.665,149.85 599.498,153.183 599,156.5C 598.412,153.026 596.578,150.526 593.5,149C 587.843,148.501 582.176,148.334 576.5,148.5C 576.5,154.833 576.5,161.167 576.5,167.5C 581.511,167.666 586.511,167.499 591.5,167C 592.928,165.084 593.928,162.917 594.5,160.5C 595.663,165.802 595.829,171.136 595,176.5C 594.214,173.417 592.381,171.251 589.5,170C 585.179,169.501 580.846,169.334 576.5,169.5C 576.334,176.175 576.5,182.842 577,189.5C 582.75,190.641 588.584,190.807 594.5,190C 597.568,187.718 600.068,184.884 602,181.5C 601.702,185.241 600.869,188.908 599.5,192.5 Z"/></g>
<g><path style="opacity:1" fill="#2c292a" d="M 73.5,192.5 C 65.3159,192.826 57.3159,192.492 49.5,191.5C 50.4959,191.586 51.3292,191.252 52,190.5C 52.6667,176.833 52.6667,163.167 52,149.5C 50.5093,147.996 48.676,147.163 46.5,147C 55.5,146.333 64.5,146.333 73.5,147C 86.1723,149.171 92.5056,156.671 92.5,169.5C 92.3519,182.312 86.0186,189.979 73.5,192.5 Z"/></g>
<g><path style="opacity:1" fill="#fcfcfc" d="M 59.5,149.5 C 75.2285,146.99 83.5619,153.49 84.5,169C 84.0975,185.229 75.7642,192.396 59.5,190.5C 59.5,176.833 59.5,163.167 59.5,149.5 Z"/></g>
<g><path style="opacity:1" fill="#242324" d="M 328.5,179.5 C 328.369,180.376 328.702,181.043 329.5,181.5C 330.823,171.007 330.823,160.674 329.5,150.5C 328.264,148.172 326.264,147.006 323.5,147C 328.833,146.333 334.167,146.333 339.5,147C 336.736,147.006 334.736,148.172 333.5,150.5C 332.833,164.833 332.167,179.167 331.5,193.5C 321.833,181.5 312.167,169.5 302.5,157.5C 302.44,156.957 302.107,156.624 301.5,156.5C 300.177,167.326 300.177,177.993 301.5,188.5C 301.5,190.5 302.5,191.5 304.5,191.5C 301.167,192.833 297.833,192.833 294.5,191.5C 296.017,191.489 297.184,190.823 298,189.5C 298.833,176.82 298.666,164.154 297.5,151.5C 295.287,149.226 292.621,147.726 289.5,147C 293.5,146.333 297.5,146.333 301.5,147C 310.876,157.627 319.876,168.46 328.5,179.5 Z"/></g>
<g><path style="opacity:1" fill="#757575" d="M 302.5,157.5 C 301.506,167.653 301.172,177.986 301.5,188.5C 300.177,177.993 300.177,167.326 301.5,156.5C 302.107,156.624 302.44,156.957 302.5,157.5 Z"/></g>
<g><path style="opacity:1" fill="#969696" d="M 329.5,150.5 C 330.823,160.674 330.823,171.007 329.5,181.5C 328.702,181.043 328.369,180.376 328.5,179.5C 329.494,170.014 329.827,160.348 329.5,150.5 Z"/></g>
<g><path style="opacity:1" fill="#262626" d="M 169.5,191.5 C 164.833,192.833 160.167,192.833 155.5,191.5C 156.725,190.848 157.392,189.681 157.5,188C 157.204,184.613 156.204,181.446 154.5,178.5C 148.167,177.167 141.833,177.167 135.5,178.5C 133.041,182.498 132.041,186.665 132.5,191C 133.448,191.483 134.448,191.649 135.5,191.5C 131.5,192.833 127.5,192.833 123.5,191.5C 125.017,191.489 126.184,190.823 127,189.5C 133.412,174.752 139.912,160.085 146.5,145.5C 153.438,159.053 159.605,173.053 165,187.5C 165.876,189.635 167.376,190.969 169.5,191.5 Z"/></g>
<g><path style="opacity:1" fill="#edecec" d="M 144.5,156.5 C 147.961,162.43 150.627,168.764 152.5,175.5C 147.5,175.5 142.5,175.5 137.5,175.5C 139.548,169.068 141.882,162.735 144.5,156.5 Z"/></g>
<g><path style="opacity:1" fill="#222021" d="M 428.5,149.5 C 427.51,155.645 427.177,161.978 427.5,168.5C 434.833,168.5 442.167,168.5 449.5,168.5C 449.823,161.978 449.49,155.645 448.5,149.5C 446.852,148.073 444.852,147.24 442.5,147C 449.167,146.333 455.833,146.333 462.5,147C 459.724,147.066 457.558,148.232 456,150.5C 455.333,163.167 455.333,175.833 456,188.5C 456.422,190.426 457.589,191.426 459.5,191.5C 455.167,192.833 450.833,192.833 446.5,191.5C 447.5,191.167 448.167,190.5 448.5,189.5C 449.49,183.355 449.823,177.022 449.5,170.5C 442.167,170.5 434.833,170.5 427.5,170.5C 427.177,177.022 427.51,183.355 428.5,189.5C 428.973,190.906 429.973,191.573 431.5,191.5C 426.833,192.833 422.167,192.833 417.5,191.5C 419.411,191.426 420.578,190.426 421,188.5C 421.667,175.833 421.667,163.167 421,150.5C 419.442,148.232 417.276,147.066 414.5,147C 421.167,146.333 427.833,146.333 434.5,147C 432.148,147.24 430.148,148.073 428.5,149.5 Z"/></g>
<g><path style="opacity:1" fill="#cbc9ca" d="M 448.5,189.5 C 448.5,183.5 448.5,177.5 448.5,171.5C 441.833,171.5 435.167,171.5 428.5,171.5C 428.5,177.5 428.5,183.5 428.5,189.5C 427.51,183.355 427.177,177.022 427.5,170.5C 434.833,170.5 442.167,170.5 449.5,170.5C 449.823,177.022 449.49,183.355 448.5,189.5 Z"/></g>
<g><path style="opacity:1" fill="#b8b6b7" d="M 428.5,149.5 C 428.5,155.5 428.5,161.5 428.5,167.5C 435.167,167.5 441.833,167.5 448.5,167.5C 448.5,161.5 448.5,155.5 448.5,149.5C 449.49,155.645 449.823,161.978 449.5,168.5C 442.167,168.5 434.833,168.5 427.5,168.5C 427.177,161.978 427.51,155.645 428.5,149.5 Z"/></g>
<g><path style="opacity:1" fill="#292828" d="M 484.5,145.5 C 505.134,144.966 514.634,154.966 513,175.5C 506.58,192.298 495.08,197.464 478.5,191C 465.072,178.532 464.072,165.198 475.5,151C 478.596,149.128 481.596,147.295 484.5,145.5 Z"/></g>
<g><path style="opacity:1" fill="#f9f9f9" d="M 486.5,147.5 C 496.845,146.681 503.012,151.348 505,161.5C 505.667,167.5 505.667,173.5 505,179.5C 499.487,192.601 491.154,194.934 480,186.5C 474.09,175.125 474.09,163.792 480,152.5C 481.965,150.45 484.132,148.783 486.5,147.5 Z"/></g>
<g><path style="opacity:1" fill="#686868" d="M 178.5,191.5 C 181.5,192.833 184.5,192.833 187.5,191.5C 188.978,191.238 190.311,191.571 191.5,192.5C 185.833,193.833 180.167,193.833 174.5,192.5C 175.689,191.571 177.022,191.238 178.5,191.5 Z"/></g>
<g><path style="opacity:1" fill="#757575" d="M 49.5,191.5 C 57.3159,192.492 65.3159,192.826 73.5,192.5C 64.3251,193.822 54.9918,193.822 45.5,192.5C 46.6888,191.571 48.0222,191.238 49.5,191.5 Z"/></g>
<g><path style="opacity:1" fill="#6b6b6b" d="M 102.5,191.5 C 106.833,192.833 111.167,192.833 115.5,191.5C 116.675,191.281 117.675,191.614 118.5,192.5C 111.833,193.833 105.167,193.833 98.5,192.5C 99.6888,191.571 101.022,191.238 102.5,191.5 Z"/></g>
<g><path style="opacity:1" fill="#727272" d="M 123.5,191.5 C 127.5,192.833 131.5,192.833 135.5,191.5C 136.376,191.369 137.043,191.702 137.5,192.5C 132.5,193.833 127.5,193.833 122.5,192.5C 122.624,191.893 122.957,191.56 123.5,191.5 Z"/></g>
<g><path style="opacity:1" fill="#6b6b6b" d="M 155.5,191.5 C 160.167,192.833 164.833,192.833 169.5,191.5C 170.376,191.369 171.043,191.702 171.5,192.5C 165.5,193.833 159.5,193.833 153.5,192.5C 153.957,191.702 154.624,191.369 155.5,191.5 Z"/></g>
<g><path style="opacity:1" fill="#6c6c6c" d="M 218.5,191.5 C 222.833,192.833 227.167,192.833 231.5,191.5C 232.978,191.238 234.311,191.571 235.5,192.5C 228.833,193.833 222.167,193.833 215.5,192.5C 216.325,191.614 217.325,191.281 218.5,191.5 Z"/></g>
<g><path style="opacity:1" fill="#696969" d="M 294.5,191.5 C 297.833,192.833 301.167,192.833 304.5,191.5C 305.675,191.281 306.675,191.614 307.5,192.5C 302.167,193.833 296.833,193.833 291.5,192.5C 292.325,191.614 293.325,191.281 294.5,191.5 Z"/></g>
<g><path style="opacity:1" fill="#737373" d="M 346.5,191.5 C 353.982,192.492 361.648,192.825 369.5,192.5C 360.991,193.821 352.325,193.821 343.5,192.5C 344.325,191.614 345.325,191.281 346.5,191.5 Z"/></g>
<g><path style="opacity:1" fill="#6b6b6b" d="M 417.5,191.5 C 422.167,192.833 426.833,192.833 431.5,191.5C 432.675,191.281 433.675,191.614 434.5,192.5C 427.833,193.833 421.167,193.833 414.5,192.5C 415.325,191.614 416.325,191.281 417.5,191.5 Z"/></g>
<g><path style="opacity:1" fill="#6a6a6a" d="M 446.5,191.5 C 450.833,192.833 455.167,192.833 459.5,191.5C 460.675,191.281 461.675,191.614 462.5,192.5C 455.833,193.833 449.167,193.833 442.5,192.5C 443.689,191.571 445.022,191.238 446.5,191.5 Z"/></g>
<g><path style="opacity:1" fill="#6c6c6c" d="M 532.5,191.5 C 536.833,192.833 541.167,192.833 545.5,191.5C 546.675,191.281 547.675,191.614 548.5,192.5C 541.833,193.833 535.167,193.833 528.5,192.5C 529.689,191.571 531.022,191.238 532.5,191.5 Z"/></g>
<g><path style="opacity:1" fill="#707070" d="M 566.5,191.5 C 577.321,192.495 588.321,192.828 599.5,192.5C 587.66,193.825 575.66,193.825 563.5,192.5C 564.325,191.614 565.325,191.281 566.5,191.5 Z"/></g>
<g><path style="opacity:1" fill="#707070" d="M 611.5,191.5 C 621.987,192.494 632.654,192.828 643.5,192.5C 631.66,193.825 619.66,193.825 607.5,192.5C 608.689,191.571 610.022,191.238 611.5,191.5 Z"/></g>
<g><path style="opacity:1" fill="#373737" d="M 354.5,208.5 C 355.964,207.84 357.631,207.507 359.5,207.5C 365.507,207.009 367.674,209.676 366,215.5C 363.772,217.113 361.272,217.78 358.5,217.5C 358.5,220.167 358.5,222.833 358.5,225.5C 357.5,225.5 356.5,225.5 355.5,225.5C 355.822,219.642 355.489,213.975 354.5,208.5 Z"/></g>
<g><path style="opacity:1" fill="#2d2d2d" d="M 413.5,207.5 C 413.631,208.239 413.464,208.906 413,209.5C 410.281,208.556 407.448,208.223 404.5,208.5C 404.5,210.833 404.5,213.167 404.5,215.5C 407.394,215.958 409.894,215.291 412,213.5C 412.667,215.5 412.667,217.5 412,219.5C 411.626,218.584 411.126,217.75 410.5,217C 408.527,216.505 406.527,216.338 404.5,216.5C 404.5,219.167 404.5,221.833 404.5,224.5C 408.603,225.231 412.103,224.231 415,221.5C 415.399,221.728 415.565,222.062 415.5,222.5C 415.068,223.71 414.401,224.71 413.5,225.5C 409.298,225.817 405.298,225.483 401.5,224.5C 402.825,219.099 402.825,213.599 401.5,208C 405.486,207.501 409.486,207.334 413.5,207.5 Z"/></g>
<g><path style="opacity:1" fill="#e2e2e2" d="M 345.5,207.5 C 343.143,207.337 340.81,207.503 338.5,208C 339.475,213.741 339.808,219.575 339.5,225.5C 340.791,225.737 341.791,225.404 342.5,224.5C 343.376,224.369 344.043,224.702 344.5,225.5C 341.355,226.995 338.522,226.662 336,224.5C 333.478,226.662 330.645,226.995 327.5,225.5C 327.957,224.702 328.624,224.369 329.5,224.5C 330.209,225.404 331.209,225.737 332.5,225.5C 332.192,219.575 332.525,213.741 333.5,208C 331.934,207.235 330.601,207.402 329.5,208.5C 328.624,208.631 327.957,208.298 327.5,207.5C 330.645,206.005 333.478,206.338 336,208.5C 337.353,207.296 339.019,206.629 341,206.5C 342.707,206.508 344.207,206.842 345.5,207.5 Z"/></g>
<g><path style="opacity:1" fill="#373737" d="M 345.5,207.5 C 350.151,208.174 351.651,210.841 350,215.5C 347.772,217.113 345.272,217.78 342.5,217.5C 342.5,219.833 342.5,222.167 342.5,224.5C 341.791,225.404 340.791,225.737 339.5,225.5C 339.808,219.575 339.475,213.741 338.5,208C 340.81,207.503 343.143,207.337 345.5,207.5 Z"/></g>
<g><path style="opacity:1" fill="#333333" d="M 378.5,208.5 C 379.946,207.387 381.613,207.22 383.5,208C 387.023,212.022 390.357,216.189 393.5,220.5C 394.798,216.285 394.798,212.118 393.5,208C 394.5,207.333 395.5,207.333 396.5,208C 395.688,214.085 395.188,220.252 395,226.5C 391.24,221.317 387.24,216.317 383,211.5C 382.603,216.436 382.436,221.103 382.5,225.5C 381.671,220.198 381.171,214.864 381,209.5C 380.329,208.748 379.496,208.414 378.5,208.5 Z"/></g>
<g><path style="opacity:1" fill="#ededed" d="M 413.5,207.5 C 414.283,209.076 415.45,210.409 417,211.5C 417.383,210.944 417.883,210.611 418.5,210.5C 418.343,211.873 418.51,213.207 419,214.5C 422.718,216.425 425.884,218.925 428.5,222C 427.771,223.992 426.271,224.826 424,224.5C 420.846,225.012 419.18,223.679 419,220.5C 418.536,221.094 418.369,221.761 418.5,222.5C 417.5,221.167 416.5,221.167 415.5,222.5C 415.565,222.062 415.399,221.728 415,221.5C 412.103,224.231 408.603,225.231 404.5,224.5C 404.5,221.833 404.5,219.167 404.5,216.5C 406.527,216.338 408.527,216.505 410.5,217C 411.126,217.75 411.626,218.584 412,219.5C 412.667,217.5 412.667,215.5 412,213.5C 409.894,215.291 407.394,215.958 404.5,215.5C 404.5,213.167 404.5,210.833 404.5,208.5C 407.448,208.223 410.281,208.556 413,209.5C 413.464,208.906 413.631,208.239 413.5,207.5 Z"/></g>
<g><path style="opacity:1" fill="#f1f1f1" d="M 342.5,208.5 C 345.93,207.755 347.597,209.089 347.5,212.5C 347.597,215.911 345.93,217.245 342.5,216.5C 342.5,213.833 342.5,211.167 342.5,208.5 Z"/></g>
<g><path style="opacity:1" fill="#f1f1f1" d="M 358.5,208.5 C 361.93,207.755 363.597,209.089 363.5,212.5C 363.597,215.911 361.93,217.245 358.5,216.5C 358.5,213.833 358.5,211.167 358.5,208.5 Z"/></g>
<g><path style="opacity:1" fill="#212121" d="M 329.5,208.5 C 330.601,207.402 331.934,207.235 333.5,208C 332.525,213.741 332.192,219.575 332.5,225.5C 331.209,225.737 330.209,225.404 329.5,224.5C 330.833,219.167 330.833,213.833 329.5,208.5 Z"/></g>
<g><path style="opacity:1" fill="#383838" d="M 268.5,224.5 C 267.5,225.833 266.5,225.833 265.5,224.5C 265.807,218.907 265.473,213.407 264.5,208C 267.833,207.333 271.167,207.333 274.5,208C 278.49,214.747 276.49,217.914 268.5,217.5C 268.5,219.833 268.5,222.167 268.5,224.5 Z"/></g>
<g><path style="opacity:1" fill="#f1f1f1" d="M 268.5,208.5 C 271.93,207.755 273.597,209.089 273.5,212.5C 273.597,215.911 271.93,217.245 268.5,216.5C 268.5,213.833 268.5,211.167 268.5,208.5 Z"/></g>
<g><path style="opacity:1" fill="#737373" d="M 292.5,208.5 C 293.833,213.833 293.833,219.167 292.5,224.5C 292.5,222.167 292.5,219.833 292.5,217.5C 289.833,217.5 287.167,217.5 284.5,217.5C 284.5,216.833 284.5,216.167 284.5,215.5C 287.167,215.5 289.833,215.5 292.5,215.5C 292.5,213.167 292.5,210.833 292.5,208.5 Z"/></g>
<g><path style="opacity:1" fill="#383838" d="M 300.5,208.5 C 301.919,207.549 303.585,207.216 305.5,207.5C 305.5,213.5 305.5,219.5 305.5,225.5C 304.5,225.5 303.5,225.5 302.5,225.5C 303.117,219.402 302.45,213.735 300.5,208.5 Z"/></g>
<g><path style="opacity:1" fill="#383838" d="M 374.5,224.5 C 373.5,225.833 372.5,225.833 371.5,224.5C 371.807,218.907 371.473,213.407 370.5,208C 372.167,207.333 373.833,207.333 375.5,208C 374.527,213.407 374.193,218.907 374.5,224.5 Z"/></g>
<g><path style="opacity:1" fill="#454545" d="M 284.5,215.5 C 284.5,216.167 284.5,216.833 284.5,217.5C 284.11,220.466 284.777,223.132 286.5,225.5C 284.167,226.833 281.833,226.833 279.5,225.5C 280.732,222.7 281.399,219.7 281.5,216.5C 281.476,213.579 281.143,210.746 280.5,208C 282.167,207.333 283.833,207.333 285.5,208C 284.565,210.381 284.232,212.881 284.5,215.5 Z"/></g>
<g><path style="opacity:1" fill="#373737" d="M 418.5,222.5 C 418.369,221.761 418.536,221.094 419,220.5C 419.18,223.679 420.846,225.012 424,224.5C 426.271,224.826 427.771,223.992 428.5,222C 425.884,218.925 422.718,216.425 419,214.5C 418.51,213.207 418.343,211.873 418.5,210.5C 421.148,206.252 424.814,205.252 429.5,207.5C 429.662,209.527 429.495,211.527 429,213.5C 428.252,209.086 425.752,207.586 421.5,209C 420.14,210.938 420.473,212.604 422.5,214C 425.249,215.123 427.749,216.623 430,218.5C 431.041,221.636 430.207,224.136 427.5,226C 424.469,226.495 421.469,226.329 418.5,225.5C 418.5,224.5 418.5,223.5 418.5,222.5 Z"/></g>
<g><path style="opacity:1" fill="#282828" d="M 324.5,225.5 C 319.968,225.818 315.634,225.485 311.5,224.5C 312.825,219.099 312.825,213.599 311.5,208C 312.833,207.333 314.167,207.333 315.5,208C 314.527,213.407 314.193,218.907 314.5,224.5C 318.603,225.231 322.103,224.231 325,221.5C 325.195,222.819 325.028,224.153 324.5,225.5 Z"/></g>
<g><path style="opacity:1" fill="#272727" d="M 292.5,208.5 C 293.601,207.402 294.934,207.235 296.5,208C 295.167,213.667 295.167,219.333 296.5,225C 294.934,225.765 293.601,225.598 292.5,224.5C 293.833,219.167 293.833,213.833 292.5,208.5 Z"/></g>
<g><path style="opacity:1" fill="#8b8b8b" d="M 265.5,224.5 C 266.5,225.833 267.5,225.833 268.5,224.5C 269.376,224.369 270.043,224.702 270.5,225.5C 268.167,226.833 265.833,226.833 263.5,225.5C 263.957,224.702 264.624,224.369 265.5,224.5 Z"/></g>
<g><path style="opacity:1" fill="#9c9c9c" d="M 311.5,224.5 C 315.634,225.485 319.968,225.818 324.5,225.5C 319.652,226.814 314.652,226.814 309.5,225.5C 309.957,224.702 310.624,224.369 311.5,224.5 Z"/></g>
<g><path style="opacity:1" fill="#8d8d8d" d="M 371.5,224.5 C 372.5,225.833 373.5,225.833 374.5,224.5C 375.376,224.369 376.043,224.702 376.5,225.5C 374.167,226.833 371.833,226.833 369.5,225.5C 369.957,224.702 370.624,224.369 371.5,224.5 Z"/></g>
<g><path style="opacity:1" fill="#929292" d="M 401.5,224.5 C 405.298,225.483 409.298,225.817 413.5,225.5C 408.985,226.812 404.318,226.812 399.5,225.5C 399.957,224.702 400.624,224.369 401.5,224.5 Z"/></g>
<g><path style="opacity:1" fill="#ababab" d="M 277.5,274.5 C 276.596,273.791 276.263,272.791 276.5,271.5C 275.209,271.263 274.209,271.596 273.5,272.5C 272.448,272.649 271.448,272.483 270.5,272C 273.349,270.273 276.349,270.106 279.5,271.5C 278.388,272.265 277.721,273.265 277.5,274.5 Z"/></g>
<g><path style="opacity:1" fill="#b8b8b8" d="M 318.5,271.5 C 316.901,271.232 315.568,271.566 314.5,272.5C 312.833,272.5 311.167,272.5 309.5,272.5C 309.5,275.167 309.5,277.833 309.5,280.5C 308.523,277.713 308.19,274.713 308.5,271.5C 307.209,271.263 306.209,271.596 305.5,272.5C 304.448,272.649 303.448,272.483 302.5,272C 302.833,271.667 303.167,271.333 303.5,271C 308.684,270.184 313.684,270.35 318.5,271.5 Z"/></g>
<g><path style="opacity:1" fill="#090909" d="M 189.5,280.5 C 189.5,280.833 189.5,281.167 189.5,281.5C 189.5,284.5 189.5,287.5 189.5,290.5C 188.791,291.404 187.791,291.737 186.5,291.5C 186.823,284.978 186.49,278.645 185.5,272.5C 184.798,271.369 186.132,271.036 189.5,271.5C 189.5,274.5 189.5,277.5 189.5,280.5 Z"/></g>
<g><path style="opacity:1" fill="#010101" d="M 198.5,271.5 C 199.167,271.5 199.833,271.5 200.5,271.5C 200.5,278.167 200.5,284.833 200.5,291.5C 199.833,291.5 199.167,291.5 198.5,291.5C 198.5,284.833 198.5,278.167 198.5,271.5 Z"/></g>
<g><path style="opacity:1" fill="#0f0f0f" d="M 218.5,272.5 C 218.5,272.167 218.5,271.833 218.5,271.5C 219.833,271.5 221.167,271.5 222.5,271.5C 222.657,272.873 222.49,274.207 222,275.5C 221.578,273.574 220.411,272.574 218.5,272.5 Z"/></g>
<g><path style="opacity:1" fill="#0e0e0e" d="M 239.5,272.5 C 241.265,271.539 243.265,271.205 245.5,271.5C 245.666,277.509 245.499,283.509 245,289.5C 244.311,290.357 243.478,291.023 242.5,291.5C 242.432,285.445 242.432,279.112 242.5,272.5C 241.5,272.5 240.5,272.5 239.5,272.5 Z"/></g>
<g><path style="opacity:1" fill="#0c0c0c" d="M 265.5,274.5 C 265.389,273.883 265.056,273.383 264.5,273C 262.19,272.503 259.857,272.337 257.5,272.5C 256.51,278.645 256.177,284.978 256.5,291.5C 254.541,285.25 253.874,278.584 254.5,271.5C 258.5,271.5 262.5,271.5 266.5,271.5C 266.737,272.791 266.404,273.791 265.5,274.5 Z"/></g>
<g><path style="opacity:1" fill="#0f0f0f" d="M 277.5,274.5 C 278.76,279.279 280.427,283.946 282.5,288.5C 282,289.5 281.5,290.5 281,291.5C 278.045,285.346 275.545,279.013 273.5,272.5C 274.209,271.596 275.209,271.263 276.5,271.5C 276.263,272.791 276.596,273.791 277.5,274.5 Z"/></g>
<g><path style="opacity:1" fill="#191919" d="M 291.5,286.5 C 291.5,287.167 291.833,287.5 292.5,287.5C 292.291,288.922 291.791,290.255 291,291.5C 288.48,285.612 286.147,279.612 284,273.5C 283.25,272.874 282.416,272.374 281.5,272C 284.167,271.333 286.833,271.333 289.5,272C 288.572,272.388 287.905,273.055 287.5,274C 288.542,278.293 289.876,282.459 291.5,286.5 Z"/></g>
<g><path style="opacity:1" fill="#0a0a0a" d="M 309.5,280.5 C 311.911,280.863 313.411,279.863 314,277.5C 314.667,279.5 314.667,281.5 314,283.5C 312.556,281.845 310.722,281.178 308.5,281.5C 308.5,284.833 308.5,288.167 308.5,291.5C 307.5,291.5 306.5,291.5 305.5,291.5C 305.5,285.167 305.5,278.833 305.5,272.5C 306.209,271.596 307.209,271.263 308.5,271.5C 308.19,274.713 308.523,277.713 309.5,280.5 Z"/></g>
<g><path style="opacity:1" fill="#0e0e0e" d="M 329.5,290.5 C 328.791,291.404 327.791,291.737 326.5,291.5C 326.823,284.978 326.49,278.645 325.5,272.5C 327.638,271.185 328.972,271.185 329.5,272.5C 329.5,278.5 329.5,284.5 329.5,290.5 Z"/></g>
<g><path style="opacity:1" fill="#212121" d="M 410.5,290.5 C 409.791,291.404 408.791,291.737 407.5,291.5C 407.823,284.978 407.49,278.645 406.5,272.5C 403.52,272.241 401.687,273.574 401,276.5C 400.506,274.866 400.34,273.199 400.5,271.5C 406.167,271.5 411.833,271.5 417.5,271.5C 417.995,277.186 416.995,277.686 414.5,273C 413.207,272.51 411.873,272.343 410.5,272.5C 410.5,278.5 410.5,284.5 410.5,290.5 Z"/></g>
<g><path style="opacity:1" fill="#090909" d="M 426.5,280.5 C 426.5,281.167 426.5,281.833 426.5,282.5C 426.5,285.167 426.5,287.833 426.5,290.5C 425.791,291.404 424.791,291.737 423.5,291.5C 423.823,284.978 423.49,278.645 422.5,272.5C 421.798,271.369 423.132,271.036 426.5,271.5C 426.5,274.5 426.5,277.5 426.5,280.5 Z"/></g>
<g><path style="opacity:1" fill="#020202" d="M 438.5,272.5 C 437.51,278.645 437.177,284.978 437.5,291.5C 435.541,285.25 434.874,278.584 435.5,271.5C 436.791,271.263 437.791,271.596 438.5,272.5 Z"/></g>
<g><path style="opacity:1" fill="#1b1b1b" d="M 447.5,271.5 C 451.5,271.5 455.5,271.5 459.5,271.5C 459.79,275.554 459.123,276.054 457.5,273C 455.19,272.503 452.857,272.337 450.5,272.5C 450.5,275.167 450.5,277.833 450.5,280.5C 452.38,280.771 453.713,280.104 454.5,278.5C 455.833,279.833 455.833,281.167 454.5,282.5C 453.432,281.566 452.099,281.232 450.5,281.5C 449.521,284.625 449.187,287.958 449.5,291.5C 447.541,285.25 446.874,278.584 447.5,271.5 Z"/></g>
<g><path style="opacity:1" fill="#1b1b1b" d="M 477.5,271.5 C 478.5,271.5 479.5,271.5 480.5,271.5C 480.5,274.5 480.5,277.5 480.5,280.5C 485.213,280.532 486.713,278.199 485,273.5C 483.662,272.776 483.495,272.11 484.5,271.5C 489.504,274.222 489.838,277.555 485.5,281.5C 483.833,281.5 482.167,281.5 480.5,281.5C 480.5,284.833 480.5,288.167 480.5,291.5C 479.5,291.5 478.5,291.5 477.5,291.5C 477.5,284.833 477.5,278.167 477.5,271.5 Z"/></g>
<g><path style="opacity:1" fill="#f0f0f0" d="M 362.5,272.5 C 363.993,273.312 364.66,274.645 364.5,276.5C 364.66,278.355 363.993,279.688 362.5,280.5C 361.5,280.5 360.5,280.5 359.5,280.5C 359.5,277.833 359.5,275.167 359.5,272.5C 360.5,272.5 361.5,272.5 362.5,272.5 Z"/></g>
<g><path style="opacity:1" fill="#151515" d="M 314.5,272.5 C 315.568,271.566 316.901,271.232 318.5,271.5C 318.66,273.199 318.494,274.866 318,276.5C 317.502,274.456 316.335,273.122 314.5,272.5 Z"/></g>
<g><path style="opacity:1" fill="#141414" d="M 362.5,272.5 C 362.5,271.833 362.833,271.5 363.5,271.5C 368.495,274.183 368.828,277.517 364.5,281.5C 363.833,281.5 363.167,281.5 362.5,281.5C 362.5,281.167 362.5,280.833 362.5,280.5C 363.993,279.688 364.66,278.355 364.5,276.5C 364.66,274.645 363.993,273.312 362.5,272.5 Z"/></g>
<g><path style="opacity:1" fill="#9e9e9e" d="M 363.5,271.5 C 362.833,271.5 362.5,271.833 362.5,272.5C 361.5,272.5 360.5,272.5 359.5,272.5C 359.5,275.167 359.5,277.833 359.5,280.5C 360.5,280.5 361.5,280.5 362.5,280.5C 362.5,280.833 362.5,281.167 362.5,281.5C 361.5,281.5 360.5,281.5 359.5,281.5C 359.216,284.777 359.549,287.943 360.5,291C 359.906,291.464 359.239,291.631 358.5,291.5C 358.5,284.833 358.5,278.167 358.5,271.5C 357.209,271.263 356.209,271.596 355.5,272.5C 354.448,272.649 353.448,272.483 352.5,272C 352.833,271.667 353.167,271.333 353.5,271C 357.027,270.192 360.36,270.359 363.5,271.5 Z"/></g>
<g><path style="opacity:1" fill="#686868" d="M 386.5,275.5 C 386.67,274.178 386.337,273.011 385.5,272C 387.167,271.333 388.833,271.333 390.5,272C 388.65,272.69 387.316,273.856 386.5,275.5 Z"/></g>
<g><path style="opacity:1" fill="#1d1d1d" d="M 163.5,271.5 C 169.167,271.5 174.833,271.5 180.5,271.5C 180.995,277.186 179.995,277.686 177.5,273C 176.207,272.51 174.873,272.343 173.5,272.5C 173.5,278.833 173.5,285.167 173.5,291.5C 172.5,291.5 171.5,291.5 170.5,291.5C 170.5,285.167 170.5,278.833 170.5,272.5C 166.838,271.637 164.672,272.97 164,276.5C 163.506,274.866 163.34,273.199 163.5,271.5 Z"/></g>
<g><path style="opacity:1" fill="#767676" d="M 292.5,287.5 C 291.833,287.5 291.5,287.167 291.5,286.5C 293.629,282.633 295.296,278.466 296.5,274C 296.095,273.055 295.428,272.388 294.5,272C 296.5,271.333 298.5,271.333 300.5,272C 299.584,272.374 298.75,272.874 298,273.5C 296.629,278.464 294.796,283.131 292.5,287.5 Z"/></g>
<g><path style="opacity:1" fill="#777777" d="M 524.5,280.5 C 524.167,280.5 523.833,280.5 523.5,280.5C 524.693,277.948 526.027,275.448 527.5,273C 525.065,271.997 525.398,271.497 528.5,271.5C 532.286,271.604 532.286,272.271 528.5,273.5C 527.392,276.059 526.059,278.392 524.5,280.5 Z"/></g>
<g><path style="opacity:1" fill="#777777" d="M 386.5,275.5 C 386.008,277.819 385.008,279.819 383.5,281.5C 382.833,281.5 382.5,281.167 382.5,280.5C 383.593,278.651 384.926,276.984 386.5,275.5 Z"/></g>
<g><path style="opacity:1" fill="#1a1a1a" d="M 382.5,280.5 C 382.5,281.167 382.833,281.5 383.5,281.5C 383.5,284.833 383.5,288.167 383.5,291.5C 382.5,291.5 381.5,291.5 380.5,291.5C 381.099,284.361 379.099,278.027 374.5,272.5C 376.421,271.359 378.421,271.192 380.5,272C 379.692,272.308 379.025,272.808 378.5,273.5C 379.592,276.024 380.926,278.357 382.5,280.5 Z"/></g>
<g><path style="opacity:1" fill="#b0b0b0" d="M 438.5,272.5 C 437.791,271.596 436.791,271.263 435.5,271.5C 434.874,278.584 435.541,285.25 437.5,291.5C 438.791,291.737 439.791,291.404 440.5,290.5C 441.043,290.56 441.376,290.893 441.5,291.5C 438.5,292.833 435.5,292.833 432.5,291.5C 434.26,288.788 434.927,285.788 434.5,282.5C 431.833,282.5 429.167,282.5 426.5,282.5C 426.5,281.833 426.5,281.167 426.5,280.5C 429.167,280.5 431.833,280.5 434.5,280.5C 434.5,277.833 434.5,275.167 434.5,272.5C 433.325,272.719 432.325,272.386 431.5,271.5C 434.833,270.167 438.167,270.167 441.5,271.5C 440.675,272.386 439.675,272.719 438.5,272.5 Z"/></g>
<g><path style="opacity:1" fill="#c8c8c8" d="M 265.5,274.5 C 266.404,273.791 266.737,272.791 266.5,271.5C 262.5,271.5 258.5,271.5 254.5,271.5C 253.874,278.584 254.541,285.25 256.5,291.5C 257.167,291.5 257.5,291.167 257.5,290.5C 259.5,290.5 261.5,290.5 263.5,290.5C 264.568,291.434 265.901,291.768 267.5,291.5C 267.833,291.5 268.167,291.5 268.5,291.5C 262.987,292.816 257.32,292.816 251.5,291.5C 253.401,285.387 254.068,279.053 253.5,272.5C 252.325,272.719 251.325,272.386 250.5,271.5C 256.128,270.505 261.794,270.171 267.5,270.5C 267.662,272.527 267.495,274.527 267,276.5C 266.283,275.956 265.783,275.289 265.5,274.5 Z"/></g>
<g><path style="opacity:1" fill="#9d9d9d" d="M 477.5,271.5 C 477.5,278.167 477.5,284.833 477.5,291.5C 476.448,291.649 475.448,291.483 474.5,291C 475.78,288.106 476.446,284.939 476.5,281.5C 476.446,278.061 475.78,274.894 474.5,272C 475.448,271.517 476.448,271.351 477.5,271.5 Z"/></g>
<g><path style="opacity:1" fill="#ececec" d="M 500.5,276.5 C 502.408,277.486 503.408,279.152 503.5,281.5C 502.292,282.782 500.958,282.782 499.5,281.5C 500.309,279.929 500.643,278.262 500.5,276.5 Z"/></g>
<g><path style="opacity:1" fill="#131313" d="M 504.5,283.5 C 504.672,282.508 504.338,281.842 503.5,281.5C 503.408,279.152 502.408,277.486 500.5,276.5C 500.771,274.688 501.438,273.022 502.5,271.5C 505.578,277.824 508.245,284.324 510.5,291C 509.365,291.749 508.365,291.583 507.5,290.5C 506.298,288.22 505.298,285.886 504.5,283.5 Z"/></g>
<g><path style="opacity:1" fill="#1b1b1b" d="M 523.5,280.5 C 523.833,280.5 524.167,280.5 524.5,280.5C 523.577,284.064 523.244,287.731 523.5,291.5C 522.5,291.5 521.5,291.5 520.5,291.5C 521.771,283.229 519.105,276.729 512.5,272C 515.167,271.333 517.833,271.333 520.5,272C 519.833,272.333 519.167,272.667 518.5,273C 519.818,275.824 521.485,278.324 523.5,280.5 Z"/></g>
<g><path style="opacity:1" fill="#9d9d9d" d="M 200.5,271.5 C 201.552,271.351 202.552,271.517 203.5,272C 202.22,274.894 201.554,278.061 201.5,281.5C 201.554,284.939 202.22,288.106 203.5,291C 202.552,291.483 201.552,291.649 200.5,291.5C 200.5,284.833 200.5,278.167 200.5,271.5 Z"/></g>
<g><path style="opacity:1" fill="#cccccc" d="M 406.5,272.5 C 407.49,278.645 407.823,284.978 407.5,291.5C 408.791,291.737 409.791,291.404 410.5,290.5C 411.675,290.281 412.675,290.614 413.5,291.5C 410.5,292.833 407.5,292.833 404.5,291.5C 406.401,285.387 407.068,279.053 406.5,272.5 Z"/></g>
<g><path style="opacity:1" fill="#cccccc" d="M 422.5,272.5 C 423.49,278.645 423.823,284.978 423.5,291.5C 424.791,291.737 425.791,291.404 426.5,290.5C 427.675,290.281 428.675,290.614 429.5,291.5C 426.5,292.833 423.5,292.833 420.5,291.5C 422.401,285.387 423.068,279.053 422.5,272.5 Z"/></g>
<g><path style="opacity:1" fill="#9c9c9c" d="M 198.5,271.5 C 198.5,278.167 198.5,284.833 198.5,291.5C 197.448,291.649 196.448,291.483 195.5,291C 197.344,288.196 198.011,285.03 197.5,281.5C 194.833,281.5 192.167,281.5 189.5,281.5C 189.5,281.167 189.5,280.833 189.5,280.5C 192.167,280.5 194.833,280.5 197.5,280.5C 197.988,277.289 197.321,274.456 195.5,272C 196.448,271.517 197.448,271.351 198.5,271.5 Z"/></g>
<g><path style="opacity:1" fill="#131313" d="M 216.5,281.5 C 216.5,281.167 216.5,280.833 216.5,280.5C 217.523,278.094 218.19,278.094 218.5,280.5C 218.561,282.721 217.895,283.054 216.5,281.5 Z"/></g>
<g><path style="opacity:1" fill="#575757" d="M 257.5,272.5 C 257.5,275.167 257.5,277.833 257.5,280.5C 258.833,280.5 260.167,280.5 261.5,280.5C 261.312,278.897 261.812,277.563 263,276.5C 263.667,279.5 263.667,282.5 263,285.5C 262.313,282.574 260.48,281.241 257.5,281.5C 257.5,284.5 257.5,287.5 257.5,290.5C 257.5,291.167 257.167,291.5 256.5,291.5C 256.177,284.978 256.51,278.645 257.5,272.5 Z"/></g>
<g><path style="opacity:1" fill="#1d1d1d" d="M 358.5,291.5 C 357.5,291.5 356.5,291.5 355.5,291.5C 355.5,285.167 355.5,278.833 355.5,272.5C 356.209,271.596 357.209,271.263 358.5,271.5C 358.5,278.167 358.5,284.833 358.5,291.5 Z"/></g>
<g><path style="opacity:1" fill="#141414" d="M 364.5,281.5 C 368.146,282.462 369.313,284.795 368,288.5C 363.782,292.53 362.782,292.53 365,288.5C 365.556,286.115 365.39,283.782 364.5,281.5 Z"/></g>
<g><path style="opacity:1" fill="#6c6c6c" d="M 454.5,282.5 C 455.833,281.167 455.833,279.833 454.5,278.5C 454.783,277.711 455.283,277.044 456,276.5C 456.667,279.5 456.667,282.5 456,285.5C 455.487,284.473 454.987,283.473 454.5,282.5 Z"/></g>
<g><path style="opacity:1" fill="#6b6b6b" d="M 500.5,276.5 C 500.643,278.262 500.309,279.929 499.5,281.5C 500.958,282.782 502.292,282.782 503.5,281.5C 504.338,281.842 504.672,282.508 504.5,283.5C 502.208,283.244 500.041,283.577 498,284.5C 497.978,281.549 498.811,278.883 500.5,276.5 Z"/></g>
<g><path style="opacity:1" fill="#cbcbcb" d="M 185.5,272.5 C 186.49,278.645 186.823,284.978 186.5,291.5C 187.791,291.737 188.791,291.404 189.5,290.5C 190.675,290.281 191.675,290.614 192.5,291.5C 189.5,292.833 186.5,292.833 183.5,291.5C 185.401,285.387 186.068,279.053 185.5,272.5 Z"/></g>
<g><path style="opacity:1" fill="#696969" d="M 438.5,272.5 C 437.88,278.926 438.547,284.926 440.5,290.5C 439.791,291.404 438.791,291.737 437.5,291.5C 437.177,284.978 437.51,278.645 438.5,272.5 Z"/></g>
<g><path style="opacity:1" fill="#707070" d="M 450.5,281.5 C 450.5,284.5 450.5,287.5 450.5,290.5C 452.5,290.5 454.5,290.5 456.5,290.5C 456.5,290.833 456.5,291.167 456.5,291.5C 454.167,291.5 451.833,291.5 449.5,291.5C 449.187,287.958 449.521,284.625 450.5,281.5 Z"/></g>
<g><path style="opacity:1" fill="#0b0b0b" d="M 485.5,281.5 C 489.146,282.462 490.313,284.795 489,288.5C 487.737,290.797 485.903,291.63 483.5,291C 484.416,290.626 485.25,290.126 486,289.5C 486.722,286.739 486.555,284.073 485.5,281.5 Z"/></g>
<g><path style="opacity:1" fill="#222222" d="M 237.5,286.5 C 238.649,286.791 239.316,287.624 239.5,289C 238.706,292.122 237.706,292.122 236.5,289C 236.743,288.098 237.077,287.265 237.5,286.5 Z"/></g>
<g><path style="opacity:1" fill="#737373" d="M 268.5,291.5 C 268.167,291.5 267.833,291.5 267.5,291.5C 267.768,289.901 267.434,288.568 266.5,287.5C 266.369,286.624 266.702,285.957 267.5,285.5C 268.466,287.396 268.799,289.396 268.5,291.5 Z"/></g>
<g><path style="opacity:1" fill="#0b0b0b" d="M 266.5,287.5 C 267.434,288.568 267.768,289.901 267.5,291.5C 265.901,291.768 264.568,291.434 263.5,290.5C 265.5,290.5 266.5,289.5 266.5,287.5 Z"/></g>
<g><path style="opacity:1" fill="#0a0a0a" d="M 318.5,285.5 C 319.461,287.265 319.795,289.265 319.5,291.5C 318.127,291.657 316.793,291.49 315.5,291C 317.607,289.736 318.607,287.903 318.5,285.5 Z"/></g>
<g><path style="opacity:1" fill="#afafaf" d="M 210.5,271.5 C 211.167,298.167 211.833,298.167 212.5,271.5C 214.5,271.5 216.5,271.5 218.5,271.5C 218.5,271.833 218.5,272.167 218.5,272.5C 216.833,272.5 215.167,272.5 213.5,272.5C 213.5,275.167 213.5,277.833 213.5,280.5C 214.5,280.5 215.5,280.5 216.5,280.5C 216.5,280.833 216.5,281.167 216.5,281.5C 215.5,281.5 214.5,281.5 213.5,281.5C 213.5,284.5 213.5,287.5 213.5,290.5C 215.5,290.5 217.5,290.5 219.5,290.5C 220.568,291.434 221.901,291.768 223.5,291.5C 223.768,289.901 223.434,288.568 222.5,287.5C 222.369,286.624 222.702,285.957 223.5,285.5C 224.474,287.743 224.808,290.076 224.5,292.5C 218.463,292.829 212.463,292.496 206.5,291.5C 207.325,290.614 208.325,290.281 209.5,290.5C 210.097,284.04 209.43,277.874 207.5,272C 208.448,271.517 209.448,271.351 210.5,271.5 Z"/></g>
<g><path style="opacity:1" fill="#141414" d="M 222.5,287.5 C 223.434,288.568 223.768,289.901 223.5,291.5C 221.901,291.768 220.568,291.434 219.5,290.5C 220.833,289.833 221.833,288.833 222.5,287.5 Z"/></g>
<g><path style="opacity:1" fill="#010101" d="M 210.5,271.5 C 211.167,271.5 211.833,271.5 212.5,271.5C 211.833,298.167 211.167,298.167 210.5,271.5 Z"/></g>
<g><path style="opacity:1" fill="#b9b9b9" d="M 325.5,272.5 C 326.49,278.645 326.823,284.978 326.5,291.5C 327.791,291.737 328.791,291.404 329.5,290.5C 331.5,290.5 333.5,290.5 335.5,290.5C 336.568,291.434 337.901,291.768 339.5,291.5C 339.768,289.901 339.434,288.568 338.5,287.5C 338.783,286.711 339.283,286.044 340,285.5C 340.497,287.81 340.663,290.143 340.5,292.5C 334.794,292.829 329.128,292.495 323.5,291.5C 325.401,285.387 326.068,279.053 325.5,272.5 Z"/></g>
<g><path style="opacity:1" fill="#0b0b0b" d="M 338.5,287.5 C 339.434,288.568 339.768,289.901 339.5,291.5C 337.901,291.768 336.568,291.434 335.5,290.5C 337.5,290.5 338.5,289.5 338.5,287.5 Z"/></g>
<g><path style="opacity:1" fill="#bbbbbb" d="M 447.5,271.5 C 446.874,278.584 447.541,285.25 449.5,291.5C 451.833,291.5 454.167,291.5 456.5,291.5C 457.833,291.5 459.167,291.5 460.5,291.5C 460.768,289.901 460.434,288.568 459.5,287.5C 459.369,286.624 459.702,285.957 460.5,285.5C 461.474,287.743 461.808,290.076 461.5,292.5C 455.463,292.829 449.463,292.496 443.5,291.5C 444.325,290.614 445.325,290.281 446.5,290.5C 447.097,284.04 446.43,277.874 444.5,272C 445.448,271.517 446.448,271.351 447.5,271.5 Z"/></g>
<g><path style="opacity:1" fill="#151515" d="M 459.5,287.5 C 460.434,288.568 460.768,289.901 460.5,291.5C 459.167,291.5 457.833,291.5 456.5,291.5C 456.5,291.167 456.5,290.833 456.5,290.5C 457.833,289.833 458.833,288.833 459.5,287.5 Z"/></g>
<g><path style="opacity:1" fill="#adadad" d="M 496.5,285.5 C 497.705,286.672 497.705,288.005 496.5,289.5C 499.276,291.279 498.943,292.279 495.5,292.5C 491.578,291.784 491.578,291.117 495.5,290.5C 495.629,288.784 495.962,287.117 496.5,285.5 Z"/></g>
</svg>
