<?xml version="1.0" encoding="UTF-8"?>
<!DOCTYPE svg PUBLIC "-//W3C//DTD SVG 1.1//EN" "http://www.w3.org/Graphics/SVG/1.1/DTD/svg11.dtd">
<svg xmlns="http://www.w3.org/2000/svg" version="1.1" width="1140px" height="1140px" style="shape-rendering:geometricPrecision; text-rendering:geometricPrecision; image-rendering:optimizeQuality; fill-rule:evenodd; clip-rule:evenodd" xmlns:xlink="http://www.w3.org/1999/xlink">
<g><path style="opacity:1" fill="#fefefe" d="M -0.5,-0.5 C 379.5,-0.5 759.5,-0.5 1139.5,-0.5C 1139.5,379.5 1139.5,759.5 1139.5,1139.5C 759.5,1139.5 379.5,1139.5 -0.5,1139.5C -0.5,759.5 -0.5,379.5 -0.5,-0.5 Z"/></g>
<g><path style="opacity:1" fill="#0f0f0f" d="M 542.5,321.5 C 542.565,321.938 542.399,322.272 542,322.5C 537.797,319.101 536.13,314.767 537,309.5C 543.886,294.395 550.219,279.062 556,263.5C 562.463,244.195 558.63,227.362 544.5,213C 537.412,208.252 529.746,205.419 521.5,204.5C 545.63,201.999 560.463,212.666 566,236.5C 567.044,247.149 565.711,257.482 562,267.5C 555.255,281.323 548.255,294.99 541,308.5C 540.151,313.026 540.651,317.36 542.5,321.5 Z"/></g>
<g><path style="opacity:1" fill="#100e0e" d="M 494.5,210.5 C 495.191,212.022 496.358,213.022 498,213.5C 499.766,212.767 501.599,212.433 503.5,212.5C 500.2,226.368 497.534,240.368 495.5,254.5C 494.448,254.649 493.448,254.483 492.5,254C 488.334,251.61 484.667,248.777 481.5,245.5C 483.488,243.535 484.988,241.202 486,238.5C 486.157,233.732 487.323,229.232 489.5,225C 486.919,219.461 485.919,213.627 486.5,207.5C 489.615,207.394 492.281,208.394 494.5,210.5 Z"/></g>
<g><path style="opacity:1" fill="#f0ebed" d="M 491.5,230.5 C 494.297,230.967 495.631,232.633 495.5,235.5C 493.833,235.5 492.167,235.5 490.5,235.5C 490.629,233.784 490.962,232.117 491.5,230.5 Z"/></g>
<g><path style="opacity:1" fill="#e8e8e6" d="M 506.5,216.5 C 502.939,230.64 500.273,244.973 498.5,259.5C 497.127,259.657 495.793,259.49 494.5,259C 490.095,255.13 485.095,252.297 479.5,250.5C 479.796,248.597 480.463,246.93 481.5,245.5C 484.667,248.777 488.334,251.61 492.5,254C 493.448,254.483 494.448,254.649 495.5,254.5C 497.534,240.368 500.2,226.368 503.5,212.5C 501.599,212.433 499.766,212.767 498,213.5C 496.358,213.022 495.191,212.022 494.5,210.5C 495.265,210.077 496.098,209.743 497,209.5C 499.319,210.871 501.819,211.538 504.5,211.5C 504.12,213.698 504.787,215.365 506.5,216.5 Z"/></g>
<g><path style="opacity:1" fill="#e8e7e6" d="M 521.5,204.5 C 529.746,205.419 537.412,208.252 544.5,213C 558.63,227.362 562.463,244.195 556,263.5C 550.219,279.062 543.886,294.395 537,309.5C 536.13,314.767 537.797,319.101 542,322.5C 542.399,322.272 542.565,321.938 542.5,321.5C 543.043,321.56 543.376,321.893 543.5,322.5C 542.147,323.524 541.48,324.857 541.5,326.5C 535.7,323.465 532.7,318.631 532.5,312C 535.476,300.546 539.976,289.713 546,279.5C 552.521,266.228 555.188,252.228 554,237.5C 549.157,217.32 536.324,207.653 515.5,208.5C 518.305,207.681 521.305,207.181 524.5,207C 522.744,206.798 521.078,206.298 519.5,205.5C 519.957,204.702 520.624,204.369 521.5,204.5 Z"/></g>
<g><path style="opacity:1" fill="#080505" d="M 515.5,208.5 C 536.324,207.653 549.157,217.32 554,237.5C 555.188,252.228 552.521,266.228 546,279.5C 539.976,289.713 535.476,300.546 532.5,312C 532.7,318.631 535.7,323.465 541.5,326.5C 544.194,328.514 547.194,330.014 550.5,331C 556.167,331.667 561.833,331.667 567.5,331C 577.531,325.984 587.531,320.984 597.5,316C 621.831,306.725 643.664,310.558 663,327.5C 667.673,312.644 676.006,309.977 688,319.5C 691.984,327.469 695.984,335.469 700,343.5C 703.083,348.588 706.917,353.088 711.5,357C 713.768,358.552 716.268,359.385 719,359.5C 721.829,358.797 724.662,358.63 727.5,359C 725.583,364.318 724.25,369.818 723.5,375.5C 713.071,376.37 704.571,372.703 698,364.5C 695.412,360.326 693.079,355.993 691,351.5C 688.473,342.057 685.64,332.724 682.5,323.5C 680.02,319.919 676.686,318.752 672.5,320C 669.302,323.594 668.135,327.761 669,332.5C 683.835,352.841 688.002,375.174 681.5,399.5C 682.319,407.125 684.819,414.125 689,420.5C 692.896,424.725 696.396,429.225 699.5,434C 696.348,438.489 693.181,442.989 690,447.5C 684.735,463.405 681.735,479.738 681,496.5C 680.626,497.416 680.126,498.25 679.5,499C 676.242,499.212 673.076,499.712 670,500.5C 669.366,503.555 669.532,506.555 670.5,509.5C 663.24,511.465 655.573,512.132 647.5,511.5C 649.542,506.626 652.209,502.126 655.5,498C 660.201,496.773 664.368,494.606 668,491.5C 675.635,474.63 679.302,456.963 679,438.5C 676.305,431.137 671.138,426.637 663.5,425C 657.736,424.918 652.236,423.752 647,421.5C 647.013,424.897 647.679,428.23 649,431.5C 652.979,435.43 654.979,440.096 655,445.5C 646.315,451.186 639.315,458.52 634,467.5C 627.918,477.664 622.918,488.331 619,499.5C 615.827,502.081 612.66,502.081 609.5,499.5C 608.287,499.747 607.62,500.414 607.5,501.5C 606.521,504.625 606.187,507.958 606.5,511.5C 599.313,511.825 592.313,511.491 585.5,510.5C 587.305,506.227 589.639,502.227 592.5,498.5C 600.036,497.13 606.203,493.463 611,487.5C 620.197,475.114 627.864,461.781 634,447.5C 635.091,441.903 634.424,436.57 632,431.5C 627.167,427.333 622.333,423.167 617.5,419C 612.607,417.418 610.94,418.918 612.5,423.5C 612.565,423.938 612.399,424.272 612,424.5C 610.89,422.963 609.39,422.297 607.5,422.5C 601.239,410.642 596.072,398.309 592,385.5C 586.682,367.792 582.516,349.792 579.5,331.5C 578.914,331.709 578.414,332.043 578,332.5C 578.437,362.665 583.604,391.998 593.5,420.5C 585.428,421.658 577.428,421.158 569.5,419C 557.75,414.624 545.75,411.124 533.5,408.5C 531.964,383.052 535.63,358.385 544.5,334.5C 543.675,333.614 542.675,333.281 541.5,333.5C 529.59,358.054 524.59,384.054 526.5,411.5C 524.5,411.5 522.5,411.5 520.5,411.5C 519.791,410.596 518.791,410.263 517.5,410.5C 516.806,420.147 516.306,429.813 516,439.5C 508.207,457.983 507.374,476.817 513.5,496C 513.646,498.034 512.98,499.701 511.5,501C 508.774,501.182 506.107,501.682 503.5,502.5C 502.643,505.451 502.643,508.451 503.5,511.5C 496.159,511.666 488.826,511.5 481.5,511C 483.422,506.484 486.089,502.484 489.5,499C 492.244,498.197 494.911,497.197 497.5,496C 499.676,491.797 500.842,487.297 501,482.5C 502.441,464.595 501.108,446.929 497,429.5C 490.925,415.265 484.092,401.432 476.5,388C 468.833,387.667 461.167,387.333 453.5,387C 442.838,384.001 432.172,381.001 421.5,378C 418.571,377.223 415.737,377.39 413,378.5C 414.976,390.802 418.976,402.469 425,413.5C 425.825,415.701 425.325,417.534 423.5,419C 425.976,420.576 428.642,420.743 431.5,419.5C 432.994,419.709 434.161,420.376 435,421.5C 435.5,429.159 435.666,436.826 435.5,444.5C 428.694,442.16 422.861,438.16 418,432.5C 416.927,428.916 416.26,425.25 416,421.5C 415.047,419.545 413.713,417.878 412,416.5C 411.008,403.531 407.674,391.198 402,379.5C 400.946,373.543 403.446,370.043 409.5,369C 424.272,368.602 438.939,367.269 453.5,365C 457.099,363.691 460.599,362.191 464,360.5C 458.751,331.608 466.918,307.441 488.5,288C 499.411,281.424 507.911,272.59 514,261.5C 514.912,258.018 515.745,254.518 516.5,251C 516.507,249.188 515.84,247.688 514.5,246.5C 511.315,251.852 506.648,255.019 500.5,256C 500.529,260.109 498.529,261.943 494.5,261.5C 494.999,266.172 493.166,269.506 489,271.5C 488.5,271.167 488,270.833 487.5,270.5C 489.287,268.142 490.287,265.475 490.5,262.5C 489.167,262.5 487.833,262.5 486.5,262.5C 486.099,265.748 485.432,268.915 484.5,272C 480.619,273.059 477.619,271.892 475.5,268.5C 474.125,264.922 473.625,261.256 474,257.5C 475.853,255.097 477.686,252.764 479.5,250.5C 485.095,252.297 490.095,255.13 494.5,259C 495.793,259.49 497.127,259.657 498.5,259.5C 500.273,244.973 502.939,230.64 506.5,216.5C 506.371,210.415 509.371,207.748 515.5,208.5 Z"/></g>
<g><path style="opacity:1" fill="#dbd6d8" d="M 476.5,258.5 C 481.241,258.823 481.575,260.49 477.5,263.5C 476.548,261.955 476.215,260.288 476.5,258.5 Z"/></g>
<g><path style="opacity:1" fill="#ebe9e9" d="M 599.5,319.5 C 612.194,341.359 629.694,358.359 652,370.5C 653.366,373.564 653.866,376.564 653.5,379.5C 633.252,368.081 616.752,352.748 604,333.5C 601.893,329.619 600.059,325.619 598.5,321.5C 598.863,320.817 599.196,320.15 599.5,319.5 Z"/></g>
<g><path style="opacity:1" fill="#f4f3f3" d="M 607.5,422.5 C 610.446,426.738 613.113,431.072 615.5,435.5C 604.856,436.542 594.189,436.709 583.5,436C 564.902,429.863 546.236,424.03 527.5,418.5C 527.702,416.05 527.369,413.717 526.5,411.5C 524.59,384.054 529.59,358.054 541.5,333.5C 542.675,333.281 543.675,333.614 544.5,334.5C 535.63,358.385 531.964,383.052 533.5,408.5C 545.75,411.124 557.75,414.624 569.5,419C 577.428,421.158 585.428,421.658 593.5,420.5C 583.604,391.998 578.437,362.665 578,332.5C 578.414,332.043 578.914,331.709 579.5,331.5C 582.516,349.792 586.682,367.792 592,385.5C 596.072,398.309 601.239,410.642 607.5,422.5 Z"/></g>
<g><path style="opacity:1" fill="#efeded" d="M 593.5,323.5 C 603.685,347.535 619.352,367.368 640.5,383C 641.448,383.483 642.448,383.649 643.5,383.5C 643.5,387.167 643.5,390.833 643.5,394.5C 640.777,393.648 638.11,392.481 635.5,391C 616.131,374.287 602.298,353.787 594,329.5C 593.505,327.527 593.338,325.527 593.5,323.5 Z"/></g>
<g><path style="opacity:1" fill="#181818" d="M 520.5,411.5 C 522.5,411.5 524.5,411.5 526.5,411.5C 527.369,413.717 527.702,416.05 527.5,418.5C 546.236,424.03 564.902,429.863 583.5,436C 594.189,436.709 604.856,436.542 615.5,435.5C 613.113,431.072 610.446,426.738 607.5,422.5C 609.39,422.297 610.89,422.963 612,424.5C 612.399,424.272 612.565,423.938 612.5,423.5C 615.649,427.095 618.816,430.762 622,434.5C 622.688,435.332 622.521,435.998 621.5,436.5C 603.832,443.029 586.165,442.863 568.5,436C 554.728,430.409 540.728,425.409 526.5,421C 524.073,418.748 523.073,415.914 523.5,412.5C 522.209,412.737 521.209,412.404 520.5,411.5 Z"/></g>
<g><path style="opacity:1" fill="#8b8b8a" d="M 607.5,501.5 C 607.5,505.167 607.5,508.833 607.5,512.5C 599.804,512.831 592.138,512.497 584.5,511.5C 584.624,510.893 584.957,510.56 585.5,510.5C 592.313,511.491 599.313,511.825 606.5,511.5C 606.187,507.958 606.521,504.625 607.5,501.5 Z"/></g>
<g><path style="opacity:1" fill="#858585" d="M 670.5,509.5 C 671.404,510.209 671.737,511.209 671.5,512.5C 663.316,512.826 655.316,512.492 647.5,511.5C 655.573,512.132 663.24,511.465 670.5,509.5 Z"/></g>
<g><path style="opacity:1" fill="#0f0f0f" d="M 115.5,599.5 C 414.833,599.5 714.167,599.5 1013.5,599.5C 1013.5,601.167 1013.5,602.833 1013.5,604.5C 714.167,604.5 414.833,604.5 115.5,604.5C 115.5,602.833 115.5,601.167 115.5,599.5 Z"/></g>
<g><path style="opacity:1" fill="#0c0909" d="M 182.5,743.5 C 182.638,738.586 181.972,733.919 180.5,729.5C 180.699,726.059 180.199,722.726 179,719.5C 169.509,737.481 160.842,755.814 153,774.5C 150.993,778.517 148.493,782.183 145.5,785.5C 142.856,782.891 140.689,779.891 139,776.5C 129.56,758.055 120.56,739.389 112,720.5C 108.755,739.216 106.255,758.05 104.5,777C 104.305,779.352 104.972,781.352 106.5,783C 109.992,782.93 112.992,783.763 115.5,785.5C 105.161,785.666 94.828,785.5 84.5,785C 86.0581,784.79 87.3915,784.29 88.5,783.5C 92.2178,782.762 94.0511,780.429 94,776.5C 98.9155,746.175 103.749,715.841 108.5,685.5C 109.365,684.417 110.365,684.251 111.5,685C 124.566,710.299 137.233,735.799 149.5,761.5C 161.57,736.124 173.737,710.79 186,685.5C 187.333,684.167 188.667,684.167 190,685.5C 194.668,716.173 199.335,746.84 204,777.5C 206.72,782.28 210.887,784.613 216.5,784.5C 206.188,785.499 195.855,785.832 185.5,785.5C 186.413,782.945 187.08,780.279 187.5,777.5C 186.046,766.114 184.38,754.781 182.5,743.5 Z"/></g>
<g><path style="opacity:1" fill="#0a0808" d="M 672.5,687.5 C 689.837,687.333 707.17,687.5 724.5,688C 741.136,692.764 747.303,703.597 743,720.5C 739.833,730.333 733.333,736.833 723.5,740C 716.574,741.339 709.574,741.839 702.5,741.5C 702.333,753.171 702.5,764.838 703,776.5C 703.642,778.762 704.475,780.929 705.5,783C 709.211,783.175 712.878,783.675 716.5,784.5C 702.833,785.833 689.167,785.833 675.5,784.5C 678.495,783.867 681.328,782.867 684,781.5C 684.945,777.886 685.612,774.219 686,770.5C 686.667,745.5 686.667,720.5 686,695.5C 685.326,693.483 684.159,691.817 682.5,690.5C 678.737,690.104 675.403,689.104 672.5,687.5 Z"/></g>
<g><path style="opacity:1" fill="#faf9f9" d="M 704.5,692.5 C 719.973,692.971 728.306,700.971 729.5,716.5C 728.346,733.313 719.346,740.646 702.5,738.5C 701.874,722.925 702.54,707.592 704.5,692.5 Z"/></g>
<g><path style="opacity:1" fill="#818181" d="M 873.5,702.5 C 886.006,701.175 898.673,701.175 911.5,702.5C 911.376,703.107 911.043,703.44 910.5,703.5C 898.345,702.505 886.011,702.171 873.5,702.5 Z"/></g>
<g><path style="opacity:1" fill="#0d0c0c" d="M 873.5,702.5 C 886.011,702.171 898.345,702.505 910.5,703.5C 907.301,704.091 904.134,705.091 901,706.5C 900.333,729.5 900.333,752.5 901,775.5C 902.214,777.049 903.714,778.215 905.5,779C 912.833,779.667 920.167,779.667 927.5,779C 931.48,776.557 934.147,773.057 935.5,768.5C 936.421,774.486 935.754,780.319 933.5,786C 924.173,786.5 914.839,786.666 905.5,786.5C 895.675,785.67 885.675,785.17 875.5,785C 876.056,784.617 876.389,784.117 876.5,783.5C 882.194,783.97 884.694,781.303 884,775.5C 884.667,752.833 884.667,730.167 884,707.5C 881.426,704.973 878.26,703.806 874.5,704C 873.944,703.617 873.611,703.117 873.5,702.5 Z"/></g>
<g><path style="opacity:1" fill="#0c0a0a" d="M 989.5,700.5 C 1002.43,699.56 1014.76,701.726 1026.5,707C 1041.43,716.36 1047.59,729.86 1045,747.5C 1041.77,769.399 1029.27,782.566 1007.5,787C 968.1,790.595 949.267,772.762 951,733.5C 956.819,714.192 969.652,703.192 989.5,700.5 Z"/></g>
<g><path style="opacity:1" fill="#fbfbfb" d="M 987.5,706.5 C 1007.73,704.528 1020.9,713.194 1027,732.5C 1030.22,746.161 1028.56,759.161 1022,771.5C 1014.41,780.251 1004.91,783.418 993.5,781C 979.283,776.116 970.783,766.283 968,751.5C 966.564,740.534 967.564,729.867 971,719.5C 974.772,712.877 980.272,708.543 987.5,706.5 Z"/></g>
<g><path style="opacity:1" fill="#0d0b0b" d="M 315.5,783.5 C 316.263,784.268 317.263,784.768 318.5,785C 308.839,785.5 299.172,785.666 289.5,785.5C 288.957,785.44 288.624,785.107 288.5,784.5C 289.325,783.614 290.325,783.281 291.5,783.5C 288.966,775.424 286.133,767.424 283,759.5C 272.894,758.182 262.728,758.182 252.5,759.5C 248.582,766.745 246.415,774.412 246,782.5C 246.383,783.056 246.883,783.389 247.5,783.5C 248.952,784.302 250.618,784.802 252.5,785C 242.839,785.5 233.172,785.666 223.5,785.5C 226.847,783.97 230.347,782.304 234,780.5C 245,755.167 256,729.833 267,704.5C 267.641,702.187 268.974,700.52 271,699.5C 273.372,701.21 275.038,703.544 276,706.5C 286,729.833 296,753.167 306,776.5C 307.957,780.643 311.124,782.976 315.5,783.5 Z"/></g>
<g><path style="opacity:1" fill="#0d0a0a" d="M 455.5,700.5 C 469.293,700.081 482.959,701.081 496.5,703.5C 497.497,710.803 497.831,718.137 497.5,725.5C 496.5,725.5 495.5,725.5 494.5,725.5C 494.901,720.199 493.234,715.699 489.5,712C 475.683,705.045 461.683,704.712 447.5,711C 439.12,718.772 435.12,728.438 435.5,740C 437.21,769.045 452.543,782.379 481.5,780C 489.781,778.554 494.447,773.721 495.5,765.5C 496.5,765.5 497.5,765.5 498.5,765.5C 497.994,770.879 497.161,776.213 496,781.5C 495.535,782.931 494.701,784.097 493.5,785C 471.113,791.21 450.446,787.877 431.5,775C 419.462,762.014 415.628,746.848 420,729.5C 426.794,713.537 438.628,703.87 455.5,700.5 Z"/></g>
<g><path style="opacity:1" fill="#0c0909" d="M 796.5,700.5 C 810.441,699.241 823.775,701.408 836.5,707C 852.729,718.001 858.562,733.168 854,752.5C 849.636,769.865 838.802,781.032 821.5,786C 801.749,790.606 784.583,786.106 770,772.5C 758.735,755.875 757.568,738.542 766.5,720.5C 774.101,710.231 784.101,703.565 796.5,700.5 Z"/></g>
<g><path style="opacity:1" fill="#fbfbfb" d="M 796.5,706.5 C 817.095,704.209 830.595,712.876 837,732.5C 840.225,746.161 838.558,759.161 832,771.5C 824.448,780.24 814.948,783.406 803.5,781C 790.931,776.764 782.764,768.264 779,755.5C 777.027,745.153 777.027,734.82 779,724.5C 782.044,715.624 787.878,709.624 796.5,706.5 Z"/></g>
<g><path style="opacity:1" fill="#0a0808" d="M 557.5,700.5 C 570.893,699.454 583.559,701.954 595.5,708C 604.167,714.006 609.667,722.173 612,732.5C 615.348,759.671 604.182,777.505 578.5,786C 559.356,790.564 542.522,786.397 528,773.5C 514.07,753.752 514.07,734.085 528,714.5C 536.309,706.427 546.142,701.76 557.5,700.5 Z"/></g>
<g><path style="opacity:1" fill="#fbfbfb" d="M 553.5,706.5 C 575.79,704.218 589.624,713.885 595,735.5C 597.866,750.01 595.033,763.177 586.5,775C 579.256,781.163 570.922,783.163 561.5,781C 547.499,776.997 538.999,767.83 536,753.5C 533.743,743.063 534.076,732.73 537,722.5C 540.413,714.919 545.913,709.586 553.5,706.5 Z"/></g>
<g><path style="opacity:1" fill="#f5f4f4" d="M 279.5,751.5 C 271.648,751.825 263.982,751.492 256.5,750.5C 259.652,740.875 263.485,731.541 268,722.5C 271.849,732.192 275.682,741.859 279.5,751.5 Z"/></g>
<g><path style="opacity:1" fill="#b3b2b0" d="M 180.5,729.5 C 181.972,733.919 182.638,738.586 182.5,743.5C 181.028,739.081 180.362,734.414 180.5,729.5 Z"/></g>
<g><path style="opacity:1" fill="#0d0b0b" d="M 416.5,783.5 C 410.25,785.459 403.584,786.126 396.5,785.5C 393.984,785.245 391.65,784.411 389.5,783C 380.408,773.245 372.075,762.912 364.5,752C 360.179,751.501 355.846,751.334 351.5,751.5C 351.334,759.84 351.5,768.173 352,776.5C 352.642,778.762 353.475,780.929 354.5,783C 356.134,783.494 357.801,783.66 359.5,783.5C 360.263,784.268 361.263,784.768 362.5,785C 350.838,785.5 339.171,785.667 327.5,785.5C 329.322,783.766 331.655,782.766 334.5,782.5C 335.281,781.271 335.781,779.938 336,778.5C 336.667,754.833 336.667,731.167 336,707.5C 335.612,706.572 334.945,705.905 334,705.5C 331.138,704.972 328.304,704.305 325.5,703.5C 342.157,702.334 358.823,702.167 375.5,703C 392.867,710.446 396.033,721.946 385,737.5C 381.985,740.683 378.818,743.683 375.5,746.5C 384.929,759.43 395.595,771.263 407.5,782C 410.393,783.149 413.393,783.649 416.5,783.5 Z"/></g>
<g><path style="opacity:1" fill="#f8f8f8" d="M 352.5,707.5 C 371.772,706.989 379.606,716.322 376,735.5C 374.221,739.612 371.388,742.778 367.5,745C 362.249,745.804 357.082,745.637 352,744.5C 351.188,732.091 351.355,719.758 352.5,707.5 Z"/></g>
<g><path style="opacity:1" fill="#696365" d="M 256.5,750.5 C 263.982,751.492 271.648,751.825 279.5,751.5C 271.657,752.82 263.657,752.82 255.5,751.5C 255.624,750.893 255.957,750.56 256.5,750.5 Z"/></g>
<g><path style="opacity:1" fill="#787878" d="M 88.5,783.5 C 87.3915,784.29 86.0581,784.79 84.5,785C 94.828,785.5 105.161,785.666 115.5,785.5C 105.013,786.494 94.3464,786.828 83.5,786.5C 83.5,785.5 83.5,784.5 83.5,783.5C 85.1667,783.5 86.8333,783.5 88.5,783.5 Z"/></g>
<g><path style="opacity:1" fill="#7c7c7c" d="M 247.5,783.5 C 249.5,783.5 251.5,783.5 253.5,783.5C 253.5,784.5 253.5,785.5 253.5,786.5C 243.319,786.827 233.319,786.494 223.5,785.5C 233.172,785.666 242.839,785.5 252.5,785C 250.618,784.802 248.952,784.302 247.5,783.5 Z"/></g>
<g><path style="opacity:1" fill="#636363" d="M 315.5,783.5 C 316.833,783.5 318.167,783.5 319.5,783.5C 319.5,784.5 319.5,785.5 319.5,786.5C 309.319,786.827 299.319,786.494 289.5,785.5C 299.172,785.666 308.839,785.5 318.5,785C 317.263,784.768 316.263,784.268 315.5,783.5 Z"/></g>
<g><path style="opacity:1" fill="#6d6d6d" d="M 359.5,783.5 C 360.833,783.5 362.167,783.5 363.5,783.5C 363.5,784.5 363.5,785.5 363.5,786.5C 351.322,786.828 339.322,786.495 327.5,785.5C 339.171,785.667 350.838,785.5 362.5,785C 361.263,784.768 360.263,784.268 359.5,783.5 Z"/></g>
<g><path style="opacity:1" fill="#5f5f5f" d="M 416.5,783.5 C 417.404,784.209 417.737,785.209 417.5,786.5C 410.313,786.825 403.313,786.491 396.5,785.5C 403.584,786.126 410.25,785.459 416.5,783.5 Z"/></g>
<g><path style="opacity:1" fill="#8f8f8f" d="M 876.5,783.5 C 876.389,784.117 876.056,784.617 875.5,785C 885.675,785.17 895.675,785.67 905.5,786.5C 895.167,786.5 884.833,786.5 874.5,786.5C 874.285,784.821 874.952,783.821 876.5,783.5 Z"/></g>
<g><path style="opacity:1" fill="#141414" d="M 457.5,839.5 C 465.656,838.343 473.99,838.177 482.5,839C 498.528,840.689 506.361,849.522 506,865.5C 502.939,881.055 493.439,888.721 477.5,888.5C 471.169,887.975 464.835,887.475 458.5,887C 460.333,886.5 461.5,885.333 462,883.5C 462.667,869.167 462.667,854.833 462,840.5C 460.644,839.62 459.144,839.286 457.5,839.5 Z"/></g>
<g><path style="opacity:1" fill="#fafafa" d="M 468.5,840.5 C 496.434,840.384 505.601,853.384 496,879.5C 487.736,885.65 478.736,886.983 469,883.5C 468.5,869.171 468.333,854.837 468.5,840.5 Z"/></g>
<g><path style="opacity:1" fill="#b1b1b1" d="M 645.5,845.5 C 647.134,844.839 648.967,844.506 651,844.5C 654.15,844.36 656.983,845.027 659.5,846.5C 654.87,845.771 650.203,845.437 645.5,845.5 Z"/></g>
<g><path style="opacity:1" fill="#555555" d="M 555.5,847.5 C 552.833,846.167 550.167,846.167 547.5,847.5C 546.325,847.719 545.325,847.386 544.5,846.5C 549.131,845.338 553.798,845.172 558.5,846C 557.473,846.513 556.473,847.013 555.5,847.5 Z"/></g>
<g><path style="opacity:1" fill="#5a5a5a" d="M 585.5,847.5 C 584.081,846.549 582.415,846.216 580.5,846.5C 580.737,847.791 580.404,848.791 579.5,849.5C 579.489,847.983 578.823,846.816 577.5,846C 581.167,845.333 584.833,845.333 588.5,846C 587.756,847.039 586.756,847.539 585.5,847.5 Z"/></g>
<g><path style="opacity:1" fill="#1a1a1a" d="M 602.5,844.5 C 603.79,845.058 604.623,846.058 605,847.5C 609.609,860.053 614.776,872.387 620.5,884.5C 621.912,885.806 623.579,886.64 625.5,887C 621.848,887.499 618.182,887.665 614.5,887.5C 613.778,882.463 612.111,877.796 609.5,873.5C 604.544,872.506 599.544,872.173 594.5,872.5C 593.306,876.086 592.306,879.753 591.5,883.5C 591.709,884.994 592.376,886.161 593.5,887C 589.5,887.667 585.5,887.667 581.5,887C 585.656,886.171 588.156,883.671 589,879.5C 593.507,867.822 598.007,856.155 602.5,844.5 Z"/></g>
<g><path style="opacity:1" fill="#131213" d="M 645.5,845.5 C 650.203,845.437 654.87,845.771 659.5,846.5C 671.364,852.93 674.864,862.597 670,875.5C 661.414,887.807 650.248,890.973 636.5,885C 626.374,875.352 624.874,864.519 632,852.5C 635.606,848.447 640.106,846.114 645.5,845.5 Z"/></g>
<g><path style="opacity:1" fill="#f8f7f7" d="M 642.5,847.5 C 657.218,845.717 665.218,852.217 666.5,867C 664.719,883.556 656.052,888.89 640.5,883C 632.14,874.202 630.64,864.369 636,853.5C 637.914,851.144 640.081,849.144 642.5,847.5 Z"/></g>
<g><path style="opacity:1" fill="#f1f1f1" d="M 601.5,854.5 C 604.627,858.846 606.627,863.846 607.5,869.5C 603.774,869.823 600.107,869.489 596.5,868.5C 598.175,863.805 599.842,859.138 601.5,854.5 Z"/></g>
<g><path style="opacity:1" fill="#161616" d="M 548.5,885.5 C 546.393,886.468 544.059,886.802 541.5,886.5C 541.737,885.209 541.404,884.209 540.5,883.5C 539.361,880.082 538.028,876.749 536.5,873.5C 534.603,872.195 532.269,871.529 529.5,871.5C 526.975,871.503 524.641,871.837 522.5,872.5C 520.499,875.66 519.165,879.16 518.5,883C 518.675,884.658 519.342,885.991 520.5,887C 516.5,887.667 512.5,887.667 508.5,887C 510.848,886.654 512.681,885.487 514,883.5C 518.498,870.168 523.832,857.168 530,844.5C 535.195,856.419 540.195,868.419 545,880.5C 545.697,882.584 546.864,884.251 548.5,885.5 Z"/></g>
<g><path style="opacity:1" fill="#7d7c7c" d="M 522.5,872.5 C 524.641,871.837 526.975,871.503 529.5,871.5C 532.269,871.529 534.603,872.195 536.5,873.5C 531.93,872.559 527.263,872.226 522.5,872.5 Z"/></g>
<g><path style="opacity:1" fill="#edeced" d="M 528.5,853.5 C 531.071,858.537 533.071,863.871 534.5,869.5C 530.833,869.5 527.167,869.5 523.5,869.5C 524.768,864.03 526.435,858.696 528.5,853.5 Z"/></g>
<g><path style="opacity:1" fill="#141414" d="M 547.5,847.5 C 550.167,846.167 552.833,846.167 555.5,847.5C 559.173,858.351 563.34,869.017 568,879.5C 572.138,869.583 575.971,859.583 579.5,849.5C 580.404,848.791 580.737,847.791 580.5,846.5C 582.415,846.216 584.081,846.549 585.5,847.5C 578.97,860.903 572.637,874.57 566.5,888.5C 560.787,876.405 555.62,864.072 551,851.5C 550.34,849.676 549.173,848.343 547.5,847.5 Z"/></g>
<g><path style="opacity:1" fill="#464646" d="M 540.5,883.5 C 541.404,884.209 541.737,885.209 541.5,886.5C 544.059,886.802 546.393,886.468 548.5,885.5C 549.766,886.09 551.099,886.59 552.5,887C 548.514,887.499 544.514,887.666 540.5,887.5C 540.5,886.167 540.5,884.833 540.5,883.5 Z"/></g>
</svg>
