<?xml version="1.0" standalone="no"?>
<!DOCTYPE svg PUBLIC "-//W3C//DTD SVG 20010904//EN"
 "http://www.w3.org/TR/2001/REC-SVG-20010904/DTD/svg10.dtd">
<svg version="1.0" xmlns="http://www.w3.org/2000/svg"
 width="500.000000pt" height="500.000000pt" viewBox="0 0 500.000000 500.000000"
 preserveAspectRatio="xMidYMid meet">

<g transform="translate(0.000000,500.000000) scale(0.100000,-0.100000)"
fill="#000000" stroke="none">
<path d="M976 2605 c-25 -64 -55 -138 -66 -165 l-20 -50 34 0 c26 0 36 5 41
20 5 17 15 20 62 20 46 0 56 -3 60 -20 4 -15 14 -20 40 -20 24 0 34 4 30 13
-83 209 -121 304 -127 310 -3 4 -28 -44 -54 -108z m74 -107 c0 -13 -8 -18 -25
-18 -28 0 -30 9 -13 58 l13 34 12 -28 c7 -16 12 -37 13 -46z"/>
<path d="M1861 2700 c-36 -82 -121 -295 -121 -302 0 -18 59 -8 70 12 16 29
102 29 121 -1 10 -15 23 -20 45 -17 l31 3 -68 165 c-61 150 -68 163 -78 140z
m28 -171 c16 -46 14 -49 -20 -49 -24 0 -30 3 -25 16 3 9 9 27 12 40 8 33 20
30 33 -7z"/>
<path d="M3561 2699 c-5 -13 -32 -82 -61 -154 -29 -71 -54 -136 -57 -142 -4
-9 6 -13 30 -13 26 0 36 5 40 20 4 17 14 20 60 20 47 0 57 -3 62 -20 5 -15 15
-20 41 -20 l34 0 -21 53 c-41 105 -111 272 -115 276 -2 2 -8 -7 -13 -20z m39
-205 c0 -8 -10 -14 -25 -14 -28 0 -30 11 -14 60 l12 32 13 -32 c8 -18 14 -39
14 -46z"/>
<path d="M3760 2555 l0 -165 30 0 30 0 0 88 1 87 82 -88 c45 -48 85 -87 90
-87 4 0 7 72 7 160 l0 160 -30 0 -29 0 -3 -90 -3 -91 -80 95 c-44 53 -83 96
-87 96 -5 0 -8 -74 -8 -165z"/>
<path d="M700 2550 l0 -160 80 0 80 0 0 30 c0 29 -1 30 -50 30 l-50 0 0 130 0
130 -30 0 -30 0 0 -160z"/>
<path d="M1210 2550 l0 -160 30 0 c29 0 29 1 32 63 l3 62 43 -62 c39 -57 46
-63 77 -63 19 0 35 2 35 4 0 3 -24 40 -54 82 l-54 78 49 73 c27 40 49 75 49
78 0 3 -15 5 -32 5 -29 0 -37 -7 -73 -62 l-40 -63 -3 63 c-3 61 -3 62 -32 62
l-30 0 0 -160z"/>
<path d="M1480 2549 l0 -161 86 3 c79 4 87 6 110 32 28 33 32 82 8 108 -14 16
-14 20 1 43 23 35 13 88 -22 116 -21 16 -40 20 -104 20 l-79 0 0 -161z m145
66 c0 -28 -2 -30 -40 -30 -38 0 -40 2 -43 33 l-3 33 43 -3 c40 -3 43 -5 43
-33z m6 -111 c21 -26 -1 -49 -47 -49 -37 0 -39 2 -42 33 -3 31 -2 32 36 32 24
0 45 -6 53 -16z"/>
<path d="M2041 2689 c6 -12 31 -52 55 -90 41 -64 44 -72 44 -138 l0 -71 30 0
30 0 0 76 c0 73 1 77 50 153 28 43 50 81 50 84 0 4 -15 7 -34 7 -31 0 -37 -5
-66 -57 l-32 -56 -21 34 c-11 19 -26 44 -34 57 -10 16 -23 22 -49 22 -32 0
-34 -1 -23 -21z"/>
<path d="M2780 2680 c0 -28 2 -30 40 -30 l40 0 0 -130 0 -130 30 0 30 0 0 130
0 130 40 0 c38 0 40 2 40 30 l0 30 -110 0 -110 0 0 -30z"/>
<path d="M3060 2550 l0 -160 30 0 30 0 0 160 0 160 -30 0 -30 0 0 -160z"/>
<path d="M3190 2550 l0 -160 30 0 30 0 0 60 c0 33 3 60 8 60 4 0 24 -27 46
-60 36 -56 41 -60 77 -60 l39 0 -51 71 c-28 39 -53 77 -56 84 -2 8 14 41 36
74 59 86 60 91 20 91 -30 -1 -38 -7 -74 -63 l-40 -62 -3 63 c-3 61 -3 62 -32
62 l-30 0 0 -160z"/>
<path d="M4160 2699 c-58 -23 -92 -79 -92 -149 0 -112 100 -185 206 -150 l36
12 0 69 0 69 -29 0 c-28 0 -30 -2 -33 -47 -3 -48 -3 -48 -38 -46 -78 4 -109
105 -50 165 27 27 36 30 80 26 45 -3 49 -1 53 22 3 14 3 28 0 32 -6 11 -103 9
-133 -3z"/>
<path d="M2460 2545 c0 -25 1 -25 80 -25 79 0 80 0 80 25 0 25 -1 25 -80 25
-79 0 -80 0 -80 -25z"/>
<path d="M1274 2191 c-2 -2 -4 -37 -4 -78 l0 -73 53 2 52 2 -47 3 c-46 4 -48
6 -48 34 0 27 3 29 36 29 21 0 33 4 29 10 -3 6 -19 10 -36 10 -24 0 -29 4 -29
24 0 23 5 25 48 28 l47 3 -48 5 c-27 3 -50 3 -53 1z"/>
<path d="M1935 2190 c-3 -5 -1 -10 4 -10 6 0 11 5 11 10 0 6 -2 10 -4 10 -3 0
-8 -4 -11 -10z"/>
<path d="M2652 2118 l1 -83 6 63 6 62 28 -50 c16 -27 32 -50 36 -50 4 0 18 23
32 52 l24 52 6 -65 6 -64 1 83 c1 45 0 82 -3 82 -3 0 -19 -28 -36 -62 -34 -67
-32 -68 -75 15 -13 26 -27 47 -29 47 -3 0 -4 -37 -3 -82z"/>
<path d="M3160 2165 c0 -22 -3 -25 -25 -19 -34 8 -55 -11 -55 -51 0 -40 17
-55 58 -52 l32 2 0 73 c0 39 -2 72 -5 72 -3 0 -5 -11 -5 -25z m-12 -37 c25
-25 8 -78 -25 -78 -22 0 -37 44 -24 69 13 24 31 27 49 9z"/>
<path d="M1410 2143 c0 -6 7 -16 15 -23 8 -7 15 -18 15 -25 0 -7 -7 -18 -15
-25 -8 -7 -15 -17 -15 -23 0 -6 10 -1 23 11 l24 22 18 -20 c10 -11 20 -18 23
-15 3 3 -3 14 -13 25 -16 17 -17 25 -7 40 18 29 14 48 -4 21 l-16 -22 -24 22
c-13 12 -24 18 -24 12z"/>
<path d="M1552 2065 c0 -44 3 -66 5 -49 4 27 7 30 33 26 24 -3 32 1 42 22 8
19 9 35 2 54 -8 23 -15 27 -47 27 l-37 1 2 -81z m66 32 c2 -27 -1 -39 -13 -43
-35 -14 -61 46 -33 74 23 23 43 9 46 -31z"/>
<path d="M1701 2136 c-17 -20 -10 -77 10 -89 18 -11 69 -2 69 13 0 6 -8 5 -19
-1 -22 -15 -51 -5 -51 16 0 11 10 15 35 15 27 0 35 4 35 18 0 39 -55 58 -79
28z m57 -8 c19 -19 14 -28 -18 -28 -18 0 -30 5 -30 13 0 28 27 36 48 15z"/>
<path d="M1842 2090 l1 -55 6 49 c4 36 11 51 26 57 17 6 15 7 -7 6 -27 -1 -28
-3 -26 -57z"/>
<path d="M1943 2095 c0 -33 2 -45 4 -27 2 18 2 45 0 60 -2 15 -4 0 -4 -33z"/>
<path d="M2022 2138 c-7 -7 -12 -29 -12 -50 0 -32 4 -39 25 -44 29 -7 55 0 55
16 0 7 -7 6 -19 -1 -22 -15 -51 -5 -51 16 0 11 11 15 40 15 44 0 52 16 24 44
-18 19 -45 21 -62 4z m56 -21 c3 -13 -3 -17 -27 -17 -33 0 -39 8 -19 28 17 17
42 11 46 -11z"/>
<path d="M2152 2090 c1 -49 2 -50 5 -13 7 75 63 88 63 14 0 -22 5 -43 10 -46
13 -8 13 61 0 86 -8 14 -20 18 -45 16 l-35 -2 2 -55z"/>
<path d="M2302 2138 c-7 -7 -12 -26 -12 -43 0 -17 5 -36 12 -43 17 -17 53 -15
68 3 15 18 7 19 -21 3 -17 -11 -22 -10 -35 6 -8 11 -14 25 -14 31 0 6 6 20 14
31 13 16 18 17 35 7 28 -17 36 -16 21 2 -15 18 -51 20 -68 3z"/>
<path d="M2442 2138 c-7 -7 -12 -29 -12 -50 0 -32 4 -39 25 -44 29 -7 55 0 55
16 0 7 -7 6 -19 -1 -22 -15 -51 -5 -51 16 0 11 11 15 40 15 44 0 52 16 24 44
-18 19 -45 21 -62 4z m56 -21 c3 -13 -3 -17 -27 -17 -33 0 -39 8 -19 28 17 17
42 11 46 -11z"/>
<path d="M2873 2095 c0 -33 2 -45 4 -27 2 18 2 45 0 60 -2 15 -4 0 -4 -33z"/>
<path d="M2942 2090 c1 -49 2 -50 5 -13 7 75 63 88 63 14 0 -22 5 -43 10 -46
13 -8 13 61 0 86 -8 14 -20 18 -45 16 l-35 -2 2 -55z"/>
<path d="M3243 2143 c-7 -2 -13 -9 -13 -14 0 -5 9 -4 19 3 15 9 23 9 35 -1 24
-20 19 -29 -16 -33 -28 -2 -33 -7 -33 -28 0 -22 4 -25 38 -26 37 -1 37 -1 37
40 0 57 -23 77 -67 59z m57 -67 c0 -18 -39 -31 -52 -18 -15 15 0 32 28 32 14
0 24 -6 24 -14z"/>
<path d="M3372 2090 c1 -49 2 -50 5 -13 7 75 63 88 63 14 0 -22 5 -43 10 -46
13 -8 13 61 0 86 -8 14 -20 18 -45 16 l-35 -2 2 -55z"/>
<path d="M3519 2133 c-13 -15 -12 -15 9 -4 27 14 52 8 52 -13 0 -9 -12 -16
-32 -18 -28 -2 -33 -7 -33 -28 0 -23 4 -25 40 -25 l40 0 -1 43 c-1 44 -14 62
-45 62 -9 0 -23 -7 -30 -17z m59 -60 c-4 -20 -35 -30 -50 -15 -15 15 0 32 28
32 19 0 25 -5 22 -17z"/>
<path d="M3662 2138 c-7 -7 -12 -26 -12 -43 0 -36 15 -55 45 -55 30 0 45 19
45 55 0 36 -15 55 -45 55 -12 0 -26 -5 -33 -12z m56 -10 c30 -30 -2 -93 -36
-71 -21 13 -27 50 -12 69 15 17 32 18 48 2z"/>
</g>
</svg>
